<?xml version="1.0" encoding="utf-8"?>
<svg viewBox="0 28.97 207.484 64.884" width="207.484" height="64.884" xmlns="http://www.w3.org/2000/svg">
  <style>
    path { fill: #000000; }
    @media (prefers-color-scheme: dark) {
      path { fill: #ffffff; }
    }
  </style>
  <g transform="matrix(0.34098, 0, 0, -0.34098, 76.376491, 71.722879)">
    <path d="m0 0c-3.781 3.966-6.708 7.452-10.088 10.505-9.801 8.865-22.562 11.304-35.371 13.481-22.504 3.822-45.103 7.207-67.517 11.43-34.803 6.556-62.173 24.403-84.501 49.425-9.769 10.939-18.024 22.811-24.743 35.584-0.802 1.522-1.531 3.073-1.772 4.956 5.549-4.081 10.98-8.304 16.668-12.208 30.735-21.097 65.295-34.745 101.89-44.178 22.165-5.713 44.534-10.747 66.801-16.12 2.083-0.504 4.097-1.249 6.155-1.846 10.109-2.951 17.021-8.394 20.066-18.433 3.257-10.734 7.959-21.092 12.412-32.596"/>
  </g>
  <g transform="matrix(0.34098, 0, 0, -0.34098, 17.440829, 61.865146)">
    <path d="m0 0c12.699-4.547 25.205-9.654 38.142-13.521 22.328-6.671 45.496-9.155 68.88-9.953 15.531-0.528 31.07-0.942 46.601-1.502 3.008-0.107 6.02-0.524 8.987-1.019 5.774-0.962 10.218-3.446 13.316-8.463 4.961-8.026 10.584-15.703 15.65-23.892-14.279 13.28-32.068 10.391-49.38 9.908-17.834-0.496-35.747-1.785-53.5-0.79-25.75 1.44-47.759 12.236-66.928 27.82-8.03 6.528-15.187 13.98-22.738 21.015 0.323 0.131 0.647 0.266 0.97 0.397"/>
  </g>
  <g transform="matrix(0.34098, 0, 0, -0.34098, 41.623811, 83.837898)">
    <path d="m0 0c6.442-1.003 12.85-2.234 19.325-2.967 21.133-2.394 41.886 0.262 62.516 4.334 8.713 1.719 17.446 3.364 26.196 4.915 5.668 1.003 10.755 0.266 14.876-4.146 4.039-4.325 8.496-8.32 12.699-12.388-0.041 4e-3 -0.508-0.012-0.856 0.168-6.683 3.491-13.689 3.622-20.888 1.756-11.896-3.09-23.822-6.077-35.673-9.306-22.329-6.078-43.254-2.394-63.196 7.747-5.353 2.717-10.325 6.073-15.474 9.134 0.16 0.254 0.315 0.503 0.475 0.753"/>
  </g>
  <g transform="matrix(0.34098, 0, 0, -0.34098, 131.107188, 71.722879)">
    <path d="m0 0c3.781 3.966 6.708 7.452 10.088 10.505 9.801 8.865 22.562 11.304 35.371 13.481 22.504 3.822 45.103 7.207 67.517 11.43 34.803 6.556 62.173 24.403 84.501 49.425 9.769 10.939 18.023 22.811 24.743 35.584 0.802 1.522 1.531 3.073 1.772 4.956-5.549-4.081-10.98-8.304-16.668-12.208-30.735-21.097-65.295-34.745-101.89-44.178-22.165-5.713-44.534-10.747-66.801-16.12-2.083-0.504-4.097-1.249-6.151-1.846-10.113-2.951-17.025-8.394-20.07-18.433-3.257-10.734-7.959-21.092-12.412-32.596"/>
  </g>
  <g transform="matrix(0.34098, 0, 0, -0.34098, 190.042169, 61.865146)">
    <path d="m0 0c-12.699-4.547-25.206-9.654-38.142-13.521-22.328-6.671-45.496-9.155-68.88-9.953-15.531-0.528-31.07-0.942-46.601-1.502-3.008-0.107-6.02-0.524-8.987-1.019-5.774-0.962-10.218-3.446-13.316-8.463-4.961-8.026-10.584-15.703-15.65-23.892 14.279 13.28 32.068 10.391 49.38 9.908 17.834-0.496 35.747-1.785 53.5-0.79 25.75 1.44 47.759 12.236 66.928 27.82 8.03 6.528 15.187 13.98 22.742 21.015-0.327 0.131-0.651 0.266-0.974 0.397"/>
  </g>
  <g transform="matrix(0.34098, 0, 0, -0.34098, 165.859874, 83.837898)">
    <path d="m0 0c-6.442-1.003-12.85-2.234-19.325-2.967-21.129-2.394-41.886 0.262-62.516 4.334-8.713 1.719-17.446 3.364-26.196 4.915-5.672 1.003-10.755 0.266-14.876-4.146-4.039-4.325-8.496-8.32-12.703-12.388 0.041 4e-3 0.512-0.012 0.86 0.168 6.683 3.491 13.689 3.622 20.888 1.756 11.892-3.09 23.822-6.077 35.673-9.306 22.329-6.078 43.254-2.394 63.196 7.747 5.349 2.717 10.325 6.073 15.474 9.134-0.16 0.254-0.315 0.503-0.475 0.753"/>
  </g>
  <g transform="matrix(0.34098, 0, 0, -0.34098, 103.740141, 93.854866)">
    <path d="m0 0c118.17 64.734 83.232 133.58 45.848 133.58-37.389 0-45.848-31.889-45.848-31.889s-8.459 31.889-45.844 31.889c-37.388 0-72.326-68.848 45.844-133.58"/>
  </g>
</svg>