<?xml version="1.0" encoding="UTF-8"?>
<svg width="207.48mm" height="93.858mm" version="1.1" viewBox="0 0 207.48 93.858" xmlns="http://www.w3.org/2000/svg" xmlns:cc="http://creativecommons.org/ns#" xmlns:dc="http://purl.org/dc/elements/1.1/" xmlns:rdf="http://www.w3.org/1999/02/22-rdf-syntax-ns#">
 <defs>
  <clipPath id="clipPath26">
   <path d="m0 368h612v-368h-612z"/>
  </clipPath>
 </defs>
 <metadata>
  <rdf:RDF>
   <cc:Work rdf:about="">
    <dc:format>image/svg+xml</dc:format>
    <dc:type rdf:resource="http://purl.org/dc/dcmitype/StillImage"/>
    <dc:title/>
   </cc:Work>
  </rdf:RDF>
 </metadata>
 <g transform="translate(-1.5262 -22.262)">
  <g transform="matrix(.34098 0 0 -.34098 .92335 146.85)" clip-path="url(#clipPath26)">
   <g transform="translate(225.76,155.03)">
    <path d="m0 0c-3.781 3.966-6.708 7.452-10.088 10.505-9.801 8.865-22.562 11.304-35.371 13.481-22.504 3.822-45.103 7.207-67.517 11.43-34.803 6.556-62.173 24.403-84.501 49.425-9.769 10.939-18.024 22.811-24.743 35.584-0.802 1.522-1.531 3.073-1.772 4.956 5.549-4.081 10.98-8.304 16.668-12.208 30.735-21.097 65.295-34.745 101.89-44.178 22.165-5.713 44.534-10.747 66.801-16.12 2.083-0.504 4.097-1.249 6.155-1.846 10.109-2.951 17.021-8.394 20.066-18.433 3.257-10.734 7.959-21.092 12.412-32.596"/>
   </g>
   <g transform="translate(52.918,183.94)">
    <path d="m0 0c12.699-4.547 25.205-9.654 38.142-13.521 22.328-6.671 45.496-9.155 68.88-9.953 15.531-0.528 31.07-0.942 46.601-1.502 3.008-0.107 6.02-0.524 8.987-1.019 5.774-0.962 10.218-3.446 13.316-8.463 4.961-8.026 10.584-15.703 15.65-23.892-14.279 13.28-32.068 10.391-49.38 9.908-17.834-0.496-35.747-1.785-53.5-0.79-25.75 1.44-47.759 12.236-66.928 27.82-8.03 6.528-15.187 13.98-22.738 21.015 0.323 0.131 0.647 0.266 0.97 0.397"/>
   </g>
   <g transform="translate(123.84,119.5)">
    <path d="m0 0c6.442-1.003 12.85-2.234 19.325-2.967 21.133-2.394 41.886 0.262 62.516 4.334 8.713 1.719 17.446 3.364 26.196 4.915 5.668 1.003 10.755 0.266 14.876-4.146 4.039-4.325 8.496-8.32 12.699-12.388-0.041 4e-3 -0.508-0.012-0.856 0.168-6.683 3.491-13.689 3.622-20.888 1.756-11.896-3.09-23.822-6.077-35.673-9.306-22.329-6.078-43.254-2.394-63.196 7.747-5.353 2.717-10.325 6.073-15.474 9.134 0.16 0.254 0.315 0.503 0.475 0.753"/>
   </g>
   <g transform="translate(386.27,155.03)">
    <path d="m0 0c3.781 3.966 6.708 7.452 10.088 10.505 9.801 8.865 22.562 11.304 35.371 13.481 22.504 3.822 45.103 7.207 67.517 11.43 34.803 6.556 62.173 24.403 84.501 49.425 9.769 10.939 18.023 22.811 24.743 35.584 0.802 1.522 1.531 3.073 1.772 4.956-5.549-4.081-10.98-8.304-16.668-12.208-30.735-21.097-65.295-34.745-101.89-44.178-22.165-5.713-44.534-10.747-66.801-16.12-2.083-0.504-4.097-1.249-6.151-1.846-10.113-2.951-17.025-8.394-20.07-18.433-3.257-10.734-7.959-21.092-12.412-32.596"/>
   </g>
   <g transform="translate(559.11,183.94)">
    <path d="m0 0c-12.699-4.547-25.206-9.654-38.142-13.521-22.328-6.671-45.496-9.155-68.88-9.953-15.531-0.528-31.07-0.942-46.601-1.502-3.008-0.107-6.02-0.524-8.987-1.019-5.774-0.962-10.218-3.446-13.316-8.463-4.961-8.026-10.584-15.703-15.65-23.892 14.279 13.28 32.068 10.391 49.38 9.908 17.834-0.496 35.747-1.785 53.5-0.79 25.75 1.44 47.759 12.236 66.928 27.82 8.03 6.528 15.187 13.98 22.742 21.015-0.327 0.131-0.651 0.266-0.974 0.397"/>
   </g>
   <g transform="translate(488.19,119.5)">
    <path d="m0 0c-6.442-1.003-12.85-2.234-19.325-2.967-21.129-2.394-41.886 0.262-62.516 4.334-8.713 1.719-17.446 3.364-26.196 4.915-5.672 1.003-10.755 0.266-14.876-4.146-4.039-4.325-8.496-8.32-12.703-12.388 0.041 4e-3 0.512-0.012 0.86 0.168 6.683 3.491 13.689 3.622 20.888 1.756 11.892-3.09 23.822-6.077 35.673-9.306 22.329-6.078 43.254-2.394 63.196 7.747 5.349 2.717 10.325 6.073 15.474 9.134-0.16 0.254-0.315 0.503-0.475 0.753"/>
   </g>
   <g transform="translate(306.01,90.123)">
    <path d="m0 0c118.17 64.734 83.232 133.58 45.848 133.58-37.389 0-45.848-31.889-45.848-31.889s-8.459 31.889-45.844 31.889c-37.388 0-72.326-68.848 45.844-133.58"/>
   </g>
   <g transform="translate(133.52,283.18)">
    <path d="m0 0 31.672-14.033-25.259 21.551 4.833 5.664 37.577-32.069-5.189-6.081-30.71 12.74 24.064-20.532-4.834-5.664-37.581 32.064z"/>
   </g>
   <g transform="translate(159.83,311)">
    <path d="m0 0c2.48 2.149 5.345 3.102 8.594 2.861 3.25-0.242 5.946-1.596 8.079-4.056l17.638-20.368c2.153-2.48 3.106-5.349 2.861-8.598-0.242-3.25-1.592-5.943-4.052-8.075-2.484-2.148-5.345-3.098-8.586-2.848-3.237 0.254-5.926 1.608-8.058 4.072l-17.642 20.368c-2.153 2.48-3.102 5.345-2.861 8.594 0.241 3.25 1.584 5.934 4.027 8.05m10.698-6.159c-0.77 0.896-1.744 1.383-2.906 1.465-1.17 0.086-2.198-0.262-3.094-1.035-0.892-0.77-1.383-1.748-1.481-2.922-0.094-1.175 0.249-2.21 1.023-3.103l17.696-20.429c0.769-0.892 1.747-1.379 2.922-1.453 1.178-0.074 2.214 0.274 3.106 1.048 0.896 0.773 1.383 1.747 1.469 2.914 0.082 1.166-0.262 2.197-1.04 3.089z"/>
   </g>
   <g transform="translate(186.39,330.04)">
    <path d="m0 0c3.503 2.222 6.691 2.889 9.556 1.997 2.509-0.769 4.723-2.668 6.63-5.684l3.838-6.057c1.871-2.951 2.333-6.155 1.388-9.617l16.189-15.249-6.801-4.309-13.763 13.288c-0.18-0.111-0.373-0.233-0.569-0.36l-3.626-2.296 9.953-15.707-6.29-3.986-26.421 41.698zm10.129-7.665c-1.535 2.418-3.499 2.869-5.893 1.346l-3.794-2.402 8.455-13.346 3.798 2.407c0.994 0.63 1.62 1.526 1.866 2.676 0.25 1.154 0.061 2.231-0.573 3.229z"/>
   </g>
   <g transform="translate(209.66,334.7)">
    <path d="m0 0-7.137-3.43-3.246 6.745 20.946 10.076 3.245-6.749-7.1-3.413 18.15-37.741-6.712-3.229z"/>
   </g>
   <g transform="translate(241.41,325.52)">
    <path d="m0 0 6.523-19.877-7.075-2.321-15.388 46.9 7.076 2.325 6.531-19.914 8.537 2.799-6.531 19.914 7.071 2.32 15.388-46.903-7.072-2.321-6.523 19.877z"/>
   </g>
   <g transform="translate(278.69,313.93)">
    <path d="m0 0-4.289 49.216 11.107 0.966c2.926 0.258 5.639-0.287 8.128-1.625 2.132-1.134 3.748-3.033 4.849-5.705 0.598-1.424 0.982-3.143 1.158-5.156 0.291-3.299-0.356-6.02-1.935-8.161-0.659-0.9-1.465-1.616-2.423-2.148 1.706-0.483 3.212-1.605 4.526-3.36 0.868-1.191 1.572-2.767 2.108-4.719 0.274-1.007 0.466-2.136 0.573-3.392 0.27-3.115-0.086-5.808-1.073-8.083-0.769-1.78-1.948-3.254-3.531-4.42-1.785-1.318-3.602-2.054-5.46-2.218zm5.467 29.818 3.103 0.27c2.3 0.2 3.748 1.461 4.338 3.777 0.212 0.864 0.27 1.911 0.159 3.143-0.18 2.038-0.81 3.54-1.895 4.498-1.002 0.888-2.234 1.268-3.695 1.141l-3.102-0.27zm1.899-21.78 3.102 0.27c2.513 0.217 4.138 1.665 4.879 4.338 0.262 0.92 0.343 1.956 0.245 3.11-0.241 2.746-0.941 4.698-2.095 5.864-1.04 1.069-2.48 1.523-4.305 1.367l-3.102-0.274z"/>
   </g>
   <g transform="translate(320.25,364.63)">
    <path d="m0 0c4.146-0.266 7.113-1.604 8.901-4.007 1.58-2.099 2.247-4.935 2.022-8.495l-0.459-7.158c-0.225-3.487-1.735-6.352-4.542-8.59l4.125-21.862-8.034 0.52-3.314 18.845c-0.205 0.013-0.434 0.025-0.668 0.041l-4.284 0.275-1.191-18.556-7.428 0.475 3.159 49.265zm3.683-12.159c0.18 2.857-1.138 4.375-3.974 4.555l-4.481 0.291-1.011-15.764 4.482-0.291c1.182-0.074 2.214 0.278 3.089 1.064 0.876 0.786 1.355 1.772 1.437 2.951z"/>
   </g>
   <g transform="translate(351.09,361.23)">
    <path d="m0 0c3.217-0.651 5.725-2.337 7.518-5.054 1.796-2.726 2.369-5.681 1.723-8.873l-5.341-26.412c-0.651-3.217-2.337-5.722-5.054-7.518-2.722-1.793-5.68-2.37-8.873-1.723-3.216 0.651-5.717 2.337-7.501 5.054-1.78 2.717-2.349 5.672-1.702 8.864l5.34 26.413c0.651 3.217 2.337 5.725 5.054 7.518 2.726 1.792 5.668 2.373 8.836 1.731m1.666-12.232c0.233 1.158 0.028 2.226-0.618 3.2-0.651 0.974-1.551 1.576-2.71 1.813-1.158 0.233-2.234 0.029-3.216-0.614-0.991-0.647-1.604-1.547-1.834-2.709l-5.357-26.487c-0.237-1.158-0.024-2.226 0.635-3.204s1.571-1.584 2.729-1.817 2.223-0.029 3.197 0.618c0.978 0.647 1.579 1.551 1.817 2.709z"/>
   </g>
   <g transform="translate(380.96,352.99)">
    <path d="m0 0c3.09-1.089 5.341-3.106 6.744-6.053 1.4-2.942 1.555-5.95 0.475-9.02l-8.954-25.418c-1.093-3.094-3.102-5.345-6.049-6.744-2.946-1.4-5.954-1.559-9.024-0.475-3.094 1.089-5.34 3.102-6.724 6.041-1.391 2.938-1.538 5.946-0.462 9.019l8.954 25.415c1.093 3.098 3.11 5.344 6.053 6.744 2.942 1.4 5.938 1.563 8.987 0.491m-0.049-12.347c0.393 1.117 0.34 2.198-0.168 3.258-0.507 1.051-1.318 1.776-2.435 2.169-1.113 0.393-2.202 0.339-3.27-0.164-1.068-0.499-1.796-1.31-2.189-2.423l-8.979-25.492c-0.393-1.113-0.332-2.201 0.188-3.261 0.516-1.056 1.334-1.785 2.447-2.178 1.114-0.392 2.198-0.335 3.254 0.168 1.056 0.508 1.78 1.318 2.173 2.431z"/>
   </g>
   <g transform="translate(391.1,311.58)">
    <path d="m0 0-7.403-13.804-6.56 3.524 23.351 43.531 6.56-3.515-8.324-15.523 16.345 11.217 6.999-3.748-18.511-12.941-3.294-31.426-7.71 4.138 2.59 21.367z"/>
   </g>
   <g transform="translate(417.6,276.02)">
    <path d="m0 0-16.358 12.007 29.204 39.791 6.004-4.403-24.821-33.824 10.354-7.6z"/>
   </g>
   <g transform="translate(433.62,289.23)">
    <path d="m0 0 11.733 28.046 6.102-5.468-7.714-16.889 15.903 9.559 6.134-5.496-26.609-14.72-13.799-15.408-5.546 4.964z"/>
   </g>
   <g transform="translate(473.57,290.12)">
    <path d="m0 0-18.821-29.081 25.246 21.571 4.833-5.664-37.556-32.093-5.198 6.082 17.397 28.336-24.051-20.552-4.833 5.659 37.552 32.098z"/>
   </g>
   <g transform="translate(239.41,243.56)">
    <path d="m0 0 4.023-10.763-6.744-3.823-17.05 47.08 8.91 5.05 31.544-38.858-6.81-3.863-7.112 9.012zm-9.773 25.165 7.199-18.29 4.8 2.718z"/>
   </g>
   <g transform="translate(256.4,292.72)">
    <path d="m0 0 18.572-29.237-9.069 31.938 7.161 2.034 13.497-47.526-7.693-2.181-18.494 27.632 8.643-30.431-7.166-2.034-13.497 47.521z"/>
   </g>
   <g transform="translate(300.5,250.11)">
    <path d="m0 0c-3.278-0.168-6.126 0.847-8.537 3.037-2.41 2.193-3.699 4.902-3.863 8.127l-1.363 26.912c-0.168 3.278 0.843 6.127 3.037 8.537 2.193 2.411 4.915 3.7 8.164 3.867 3.282 0.164 6.118-0.847 8.521-3.04 2.398-2.194 3.679-4.915 3.847-8.169l0.282-5.627-7.71-0.389-0.291 5.783c-0.061 1.179-0.536 2.169-1.416 2.967-0.884 0.794-1.911 1.166-3.09 1.105-1.182-0.057-2.165-0.532-2.95-1.412-0.782-0.88-1.146-1.911-1.085-3.094l1.371-26.99c0.057-1.178 0.524-2.16 1.392-2.946 0.863-0.786 1.89-1.146 3.073-1.085 1.179 0.058 2.165 0.52 2.967 1.388 0.798 0.863 1.162 1.886 1.105 3.065l-0.491 9.691-4.133-0.209-0.377 7.473 11.844 0.602 0.871-17.234c0.168-3.278-0.847-6.118-3.04-8.516-2.194-2.398-4.899-3.679-8.128-3.843"/>
   </g>
   <g transform="translate(313.46,251.17)">
    <path d="m0 0 7.231 48.868 20.97-3.098-1.097-7.407-13.603 2.013-1.973-13.329 9.941-1.469-1.097-7.408-9.94 1.474-1.969-13.329 13.603-2.014-1.096-7.403z"/>
   </g>
   <g transform="translate(356.46,240.32)">
    <path d="m0 0-19.063 6.945 16.902 46.38 6.994-2.55-14.368-39.418 12.072-4.4z"/>
   </g>
   <g transform="translate(384.93,237.69)">
    <path d="m0 0c-1.752-2.963-4.047-5.005-6.892-6.13-1.894-0.782-3.961-0.889-6.2-0.32-1.199 0.303-2.468 0.864-3.814 1.69-2.488 1.523-4.17 3.397-5.054 5.632-0.749 1.841-0.991 3.875-0.725 6.097 0.267 2.223 1.02 4.498 2.255 6.818l6.319-3.261c-1.232-2.619-1.674-4.797-1.318-6.532 0.254-1.297 0.884-2.226 1.899-2.783 1.412-0.806 2.943-0.802 4.584 0.013 0.818 0.393 1.6 1.195 2.341 2.402 1.072 1.751 1.342 3.974 0.806 6.675-0.532 1.956-1.322 4.89-2.378 8.803-0.855 3.327-1.227 6.065-1.113 8.213 0.172 2.394 0.909 4.657 2.21 6.785 2.349 3.835 5.414 5.951 9.196 6.348 2.316 0.217 4.653-0.397 7.006-1.834 2.263-1.383 3.892-3.073 4.891-5.07 0.769-1.551 1.113-3.27 1.023-5.157-0.09-1.882-0.618-3.789-1.584-5.725l-6.761 2.615c0.876 1.834 1.203 3.479 0.986 4.936-0.155 1.051-0.785 1.915-1.882 2.586-1.162 0.712-2.366 0.737-3.601 0.078-1.003-0.528-1.879-1.408-2.632-2.64-1.179-1.927-1.547-4.395-1.109-7.403 0.16-1.146 0.553-2.619 1.179-4.416 0.724-2.136 1.17-3.597 1.338-4.379 0.61-2.525 0.872-4.808 0.794-6.855-0.037-0.965-0.115-1.825-0.238-2.578-0.315-1.874-0.822-3.409-1.526-4.608"/>
   </g>
  </g>
 </g>
</svg>
