<svg xmlns="http://www.w3.org/2000/svg" width="140" height="169" viewBox="0 0 140 169" xmlns:xlink="http://www.w3.org/1999/xlink">
  <defs>
    <polygon id="a" points=".6 6.3 6.9 6.3 6.9 .3 .6 .3"/>
    <polygon id="c" points="73.3 .6 .2 .6 .2 24.7 73.3 24.7 73.3 .6"/>
    <polygon id="e" points="0 .3 0 17.9 25.3 17.9 25.3 .3"/>
    <polygon id="g" points="6.8 7.7 6.8 .2 .1 .2 .1 7.7 6.8 7.7"/>
  </defs>
  <g fill="none" fill-rule="evenodd" transform="translate(24 25)">
    <polygon fill="#FF8240" points="46.2 33.3 48.3 30.2 49.7 33.4 52.3 30.5 53.1 33.9 56.2 31.2 56.4 34.6 59.9 32.3 59.5 35.6 63.5 33.6 62.5 36.9 66.8 35.2 65.1 38.4 69.7 37.1 67.5 40.2 72.3 39.3 69.5 42.1 74.4 41.6 71.2 44.2 76.2 44.1 72.5 46.4 77.4 46.8 73.3 48.7 78.2 49.5 73.8 51.1 78.4 52.3 73.8 53.5 78.2 55 73.3 55.8 77.4 57.8 72.5 58.1 76.1 60.4 71.2 60.3 74.4 62.9 69.5 62.4 72.2 65.3 67.5 64.3 69.7 67.4 65.1 66.1 66.7 69.3 62.4 67.6 63.4 70.9 59.5 68.9 59.9 72.2 56.3 69.9 56.1 73.3 53 70.6 52.2 73.9 49.6 71 48.2 74.3 46.2 71.2 44.1 74.3 42.7 71 40.1 73.9 39.3 70.6 36.2 73.2 36 69.8 32.5 72.2 32.9 68.8 28.9 70.9 29.9 67.5 25.6 69.2 27.3 66 22.7 67.3 24.9 64.3 20.1 65.2 22.9 62.3 18 62.8 21.2 60.3 16.2 60.3 19.9 58 15 57.7 19.1 55.7 14.2 54.9 18.6 53.4 14 52.2 18.6 51 14.2 49.4 19.1 48.6 15 46.7 19.9 46.3 16.3 44 21.2 44.1 18 41.5 22.9 42 20.2 39.2 24.9 40.1 22.7 37.1 27.3 38.4 25.7 35.2 30 36.9 29 33.5 32.9 35.6 32.5 32.2 36.1 34.6 36.3 31.2 39.4 33.9 40.2 30.5 42.8 33.4 44.2 30.2"/>
    <g transform="translate(0 .235)">
      <path fill="#FEFEFE" d="M12.125939 116.951763L12.6949729 115.590711 13.259278 116.953342 12.125939 116.951763 12.125939 116.951763zM12.1093881 118.219658L12.1093881 118.129658C11.9943203 118.119395 11.9162949 118.105184 11.8745237 118.085447 11.8075322 118.053079 11.7744305 117.995447 11.7744305 117.911763 11.7744305 117.870711 11.7862525 117.813868 11.8114729 117.742816 11.8366932 117.670974 11.9139305 117.474395 12.0431847 117.150711L13.3420322 117.153079 13.5390661 117.628342C13.567439 117.695447 13.5902949 117.760184 13.6060576 117.820974 13.6218203 117.882553 13.6297017 117.924395 13.6297017 117.948079 13.6297017 118.020711 13.608422 118.0665 13.5666508 118.083868 13.5248797 118.102816 13.4310915 118.118605 13.2852864 118.131237L13.2852864 118.221237 14.5510322 118.222816 14.5510322 118.132816C14.4351763 118.117026 14.3532102 118.086237 14.3043458 118.042026 14.2554814 117.997816 14.1900661 117.881763 14.1081 117.693868L12.8857017 114.894395 12.7753627 114.893605 11.7499983 117.317289C11.5955237 117.681237 11.486761 117.903868 11.4237102 117.985184 11.3598712 118.0665 11.2652949 118.113868 11.1391932 118.128079L11.1391932 118.218079 12.1093881 118.219658zM17.8769644 114.952895L17.8769644 115.042895C17.6854475 115.055526 17.5624983 115.087105 17.5057525 115.137632 17.4490068 115.188158 17.4206339 115.304211 17.4198458 115.486579L17.4174814 117.069474C17.4174814 117.329211 17.4521593 117.532105 17.5223034 117.676579 17.6531339 117.941842 17.9029729 118.073684 18.2702441 118.074474 18.6721932 118.075263 18.9425237 117.940263 19.0804475 117.669474 19.1576847 117.518684 19.1963034 117.285 19.1970915 116.969211L19.1994559 115.682368C19.1994559 115.413158 19.1679305 115.242632 19.1033034 115.174737 19.0394644 115.106053 18.9173034 115.062632 18.7376085 115.044474L18.7376085 114.954474 19.8811932 114.956053 19.8811932 115.046053C19.6896763 115.066579 19.5651508 115.113158 19.5060407 115.185 19.4477186 115.256053 19.4177695 115.422632 19.4177695 115.682368L19.4154051 116.970789C19.4154051 117.312632 19.3626 117.579474 19.257778 117.771316 19.0646847 118.124211 18.6982017 118.300263 18.1591169 118.299474 17.6263373 118.298684 17.2637949 118.123421 17.072278 117.775263 16.9674559 117.587368 16.9162271 117.340263 16.9162271 117.033947L16.9185915 115.485789C16.9193797 115.305789 16.8917949 115.189737 16.8366254 115.139211 16.7822441 115.087895 16.6616593 115.055526 16.4764475 115.040526L16.4764475 114.950526 17.8769644 114.952895zM22.0689788 117.250342C22.1517331 117.472184 22.2486737 117.649026 22.3598008 117.780868 22.5536822 118.011395 22.7956398 118.126658 23.0840975 118.126658 23.2401483 118.127447 23.3757076 118.077711 23.4899873 117.977447 23.6042669 117.876395 23.6610127 117.736658 23.6618008 117.557447 23.6618008 117.395605 23.6042669 117.255079 23.4891992 117.135079 23.4143263 117.059289 23.255911 116.944816 23.0139534 116.792447L22.5938771 116.527184C22.4677754 116.446658 22.3668941 116.363763 22.2920212 116.282447 22.1533093 116.125342 22.0839534 115.952447 22.0839534 115.762974 22.0847415 115.512711 22.1674958 115.305079 22.3322161 115.1385 22.4977246 114.972711 22.7168263 114.889816 22.9895212 114.889816 23.1014364 114.890605 23.2369958 114.917447 23.3946229 114.971132 23.55225 115.025605 23.6420975 115.051658 23.6649534 115.051658 23.7256398 115.051658 23.7681992 115.037447 23.7910551 115.010605 23.8146992 114.982184 23.8328263 114.942711 23.8454364 114.891395L23.9486822 114.891395 24.0558686 115.946921 23.9400127 115.946921C23.860411 115.627974 23.7311568 115.406132 23.5538263 115.279816 23.3757076 115.152711 23.2007415 115.089553 23.0265636 115.089553 22.8910042 115.089553 22.7727839 115.129816 22.6726907 115.208763 22.5718093 115.289289 22.5213686 115.399816 22.5213686 115.542711 22.5213686 115.670605 22.5591992 115.778763 22.6356483 115.870342 22.7128856 115.962711 22.8318941 116.059026 22.99425 116.159289L23.4269364 116.429289C23.6980551 116.598237 23.8887839 116.752974 23.9991229 116.892711 24.1086737 117.035605 24.1630551 117.202974 24.1630551 117.396395 24.1622669 117.656132 24.0653263 117.872447 23.8706568 118.046921 23.6759873 118.221395 23.4277246 118.307447 23.1250805 118.307447 22.9729703 118.306658 22.8145551 118.277447 22.6490466 118.219816 22.4835381 118.161395 22.3889619 118.132184 22.3645297 118.132184 22.3069958 118.132184 22.2683771 118.150342 22.2486737 118.187447 22.2281822 118.224553 22.2147839 118.264026 22.2084788 118.305868L22.0997161 118.305868 21.9531229 117.250342 22.0689788 117.250342zM26.3545449 114.966L29.1484856 114.970737 29.1666127 115.813105 29.0507568 115.813105C28.994011 115.548632 28.9207144 115.374947 28.8316551 115.296 28.7425958 115.215474 28.5550195 115.175211 28.2681381 115.175211L27.9985958 115.174421 27.9946551 117.710211C27.9946551 117.900474 28.0238161 118.018105 28.0829263 118.063895 28.1420364 118.109684 28.2705025 118.139684 28.4691127 118.154684L28.4691127 118.244684 27.023672 118.242316 27.0244602 118.152316C27.2364686 118.136526 27.3688754 118.102579 27.4216805 118.048895 27.4736975 117.996789 27.4997059 117.864158 27.5004941 117.651L27.5036466 115.173632 27.2341042 115.173632C26.9621975 115.172842 26.7777737 115.212316 26.6784686 115.290474 26.5799517 115.370211 26.5058669 115.543105 26.4562144 115.809158L26.3340534 115.809158 26.3545449 114.966zM31.1327746 118.158632C31.3321729 118.144421 31.460639 118.115211 31.5197492 118.069421 31.5788593 118.023632 31.6088085 117.906 31.6088085 117.714947L31.611961 115.508368C31.6127492 115.326789 31.5828 115.209158 31.524478 115.156263 31.4653678 115.104158 31.3369017 115.073368 31.1375034 115.063105L31.1375034 114.973105 32.5892492 114.975474 32.5892492 115.065474C32.390639 115.074947 32.2613847 115.105737 32.2022746 115.157842 32.1431644 115.209947 32.1132153 115.327579 32.1132153 115.509158L32.1100627 117.715737C32.1092746 117.906789 32.1392237 118.024421 32.1975458 118.070211 32.2566559 118.116 32.3859102 118.146 32.5845203 118.161L32.5845203 118.251 31.1327746 118.248632 31.1327746 118.158632zM34.5197873 118.163921C34.7247025 118.143395 34.8563212 118.096816 34.9146432 118.024974 34.9729653 117.953921 35.0021263 117.787342 35.0021263 117.526026L35.0060669 115.343132 34.9382873 115.262605C34.8657788 115.177342 34.8035161 115.124447 34.7530754 115.103921 34.7026347 115.083395 34.6261856 115.072342 34.5245161 115.068395L34.5245161 114.978395 35.3701856 114.979974 37.2703805 117.351553 37.2727449 115.7055C37.2735331 115.433921 37.2333381 115.257868 37.1521602 115.175763 37.0993551 115.123658 36.9811347 115.088921 36.7982873 115.072342L36.7990754 114.982342 37.9615754 114.983921 37.9615754 115.073921C37.773211 115.092868 37.6486856 115.138658 37.5856347 115.211289 37.523372 115.283132 37.4918466 115.449711 37.4910585 115.709447L37.4871178 118.316289 37.4027873 118.316289 35.2235924 115.597342 35.221228 117.526026C35.2204398 117.797605 35.2598466 117.973658 35.337872 118.056553 35.389889 118.109447 35.5041686 118.145763 35.6822873 118.1655L35.6822873 118.2555 34.5197873 118.253921 34.5197873 118.163921zM55.0480398 115.010368L57.8427686 115.014316 57.8601076 115.857474 57.7450398 115.857474C57.6875059 115.593 57.6134212 115.419316 57.5243619 115.340368 57.4360907 115.260632 57.2477263 115.219579 56.9616331 115.219579L56.6920907 115.218789 56.68815 117.753789C56.68815 117.944842 56.717311 118.062474 56.7756331 118.108263 56.8355314 118.154053 56.9639975 118.184053 57.1626076 118.199053L57.1626076 118.289053 55.7171669 118.286684 55.7179551 118.196684C55.9307517 118.180895 56.0623703 118.146947 56.1151754 118.093263 56.1671924 118.041158 56.1932008 117.908526 56.193989 117.695368L56.1971415 115.218 55.9275992 115.218C55.6564805 115.217211 55.4704805 115.256684 55.3727517 115.334842 55.2734466 115.414579 55.1993619 115.587474 55.1497093 115.853526L55.0275483 115.853526 55.0480398 115.010368zM60.632611 118.204263C60.8154585 118.185316 60.9344669 118.152947 60.9888483 118.107947 61.0432297 118.062158 61.0700263 117.946895 61.0700263 117.760579L61.0731788 115.554C61.0739669 115.378737 61.0471703 115.263474 60.9943653 115.209 60.940772 115.155316 60.8225517 115.122158 60.6373398 115.108737L60.6373398 115.018737 63.2586788 115.022684 63.2768059 115.730842 63.1483398 115.730842C63.1065686 115.512158 63.0450941 115.370053 62.9615517 115.306105 62.8787975 115.241368 62.6927975 115.209 62.4035517 115.208211L61.7344246 115.207421C61.6619161 115.206632 61.6177805 115.218474 61.6004415 115.242158 61.5838907 115.265842 61.5744331 115.309263 61.5744331 115.374789L61.5728568 116.480842 62.3310432 116.482421C62.5406873 116.482421 62.6738822 116.451632 62.7322042 116.389263 62.7897381 116.326105 62.8370263 116.198211 62.8717042 116.007158L62.986772 116.007158 62.9851958 117.152684 62.870128 117.152684C62.8338737 116.959263 62.7865856 116.832158 62.7290517 116.769 62.6715178 116.707421 62.539111 116.675842 62.3310432 116.675053L61.5728568 116.674263 61.5712805 117.901895C61.5704924 117.999789 61.6020178 118.058211 61.6642805 118.076368 61.7257551 118.094526 61.9101788 118.103211 62.2183398 118.104 62.5517212 118.104 62.7984076 118.068474 62.957611 117.995842 63.1168144 117.923211 63.2610432 117.747158 63.3887212 117.468474L63.5242805 117.468474 63.3012381 118.298211 60.632611 118.294263 60.632611 118.204263zM66.2613178 118.212947C66.3929364 118.198737 66.4930297 118.163211 66.5623856 118.107158 66.6309534 118.051105 66.7673008 117.897158 66.971428 117.645316L67.7351314 116.699526 67.1968347 115.906105C66.9619703 115.557947 66.7956737 115.341632 66.7003093 115.256368 66.6049449 115.170316 66.4780551 115.124526 66.3196398 115.118211L66.3196398 115.027421 67.8123686 115.029789 67.8115805 115.119789C67.668928 115.124526 67.5751398 115.134789 67.5317924 115.148211 67.465589 115.168737 67.4324873 115.214526 67.4324873 115.284789 67.4324873 115.329 67.44825 115.382684 67.4805636 115.445053 67.4963263 115.476632 67.5191822 115.512947 67.5483432 115.554789L68.0543263 116.295316 68.6036568 115.625842C68.6848347 115.527158 68.7400042 115.448211 68.7683771 115.389 68.7865042 115.352684 68.7951737 115.320316 68.7951737 115.291895 68.7951737 115.217684 68.7604958 115.169526 68.6903517 115.145842 68.6470042 115.130842 68.5689788 115.122947 68.4546992 115.121368L68.4554873 115.031368 69.6235042 115.032947 69.6235042 115.122947C69.4918856 115.126105 69.389428 115.146632 69.3177076 115.185316 69.203428 115.248474 69.0615636 115.384263 68.8929025 115.592684L68.1835805 116.481632 69.1159449 117.845842C69.21525 117.994263 69.2972161 118.088211 69.3634195 118.128474 69.4296229 118.168737 69.5257754 118.198737 69.6534534 118.218474L69.6526653 118.308474 68.2017076 118.306105 68.2024958 118.216105C68.3412076 118.212947 68.4381483 118.201105 68.4933178 118.179789 68.5484873 118.158474 68.576072 118.117421 68.576072 118.057421 68.576072 118.006105 68.5398178 117.919263 68.4657331 117.798474 68.3932246 117.677684 68.1914619 117.372158 67.8596568 116.883474L67.2772246 117.611368C67.1928941 117.719526 67.1337839 117.798474 67.1014703 117.848211 67.0478771 117.927947 67.0218686 117.986368 67.0218686 118.025053 67.0218686 118.096105 67.0628517 118.146632 67.1456059 118.175842 67.1944703 118.194 67.2788008 118.206632 67.3970212 118.214526L67.3970212 118.304526 66.2613178 118.302947 66.2613178 118.212947zM73.4515576 117.0465L74.0205915 115.685447 74.5841085 117.048079 73.4515576 117.0465 73.4515576 117.0465zM73.4350068 118.313605L73.4357949 118.224395C73.3191508 118.214132 73.2419136 118.199921 73.2001424 118.180184 73.1331508 118.147816 73.099261 118.090184 73.099261 118.0065 73.099261 117.965447 73.1126593 117.908605 73.1370915 117.837553 73.1623119 117.765711 73.238761 117.569132 73.3680153 117.245447L74.6676508 117.247816 74.8646847 117.723079C74.8938458 117.790184 74.9159136 117.854921 74.9316763 117.915711 74.947439 117.977289 74.9561085 118.019132 74.9553203 118.042816 74.9553203 118.115447 74.9340407 118.161237 74.8922695 118.178605 74.8504983 118.197553 74.755922 118.213342 74.6109051 118.225974L74.6109051 118.315974 75.8758627 118.317553 75.8766508 118.227553C75.7607949 118.211763 75.6780407 118.180974 75.6291763 118.136763 75.5803119 118.092553 75.5156847 117.9765 75.4337186 117.788605L74.2113203 114.989132 74.1001932 114.988342 73.0748288 117.412026C72.9211424 117.775974 72.8123797 117.998605 72.7493288 118.079921 72.6854898 118.161237 72.5909136 118.208605 72.4648119 118.222816L72.4648119 118.312816 73.4350068 118.313605zM78.8936339 117.338053C78.9771763 117.559895 79.0741169 117.736737 79.1852441 117.868579 79.3791254 118.099105 79.6210831 118.214368 79.9095407 118.214368 80.0655915 118.215158 80.2003627 118.165421 80.3146424 118.065158 80.428922 117.964895 80.4856678 117.824368 80.4864559 117.645158 80.4864559 117.483316 80.4297102 117.342789 80.3146424 117.222789 80.2389814 117.147 80.0813542 117.032526 79.8393966 116.880158L79.4193203 116.614895C79.2932186 116.534368 79.1923373 116.452263 79.1166763 116.370158 78.9779644 116.213053 78.9086085 116.040158 78.9086085 115.850684 78.9093966 115.600421 78.9921508 115.392789 79.1576593 115.226211 79.3223797 115.060421 79.5422695 114.977526 79.8149644 114.977526 79.9268797 114.978316 80.0616508 115.005158 80.2200661 115.058842 80.3776932 115.113316 80.4675407 115.139368 80.4903966 115.139368 80.5510831 115.140158 80.5928542 115.125158 80.6164983 115.098316 80.6393542 115.069895 80.6574814 115.030421 80.6700915 114.979105L80.7733373 114.979105 80.8805237 116.034632 80.7654559 116.034632C80.6850661 115.716474 80.5566 115.493842 80.3784814 115.367526 80.2011508 115.240421 80.0253966 115.177263 79.8520068 115.177263 79.7156593 115.177263 79.5990153 115.217526 79.4973458 115.296474 79.3972525 115.377 79.3460237 115.487526 79.3460237 115.630421 79.3460237 115.758316 79.3838542 115.866474 79.4610915 115.958053 79.5375407 116.050421 79.6573373 116.146737 79.8189051 116.247L80.2523797 116.517C80.5227102 116.685947 80.713439 116.840684 80.8245661 116.981211 80.9341169 117.123316 80.9884983 117.290684 80.9877102 117.484105 80.9877102 117.743842 80.8899814 117.960158 80.6953119 118.134632 80.5006424 118.309105 80.2523797 118.395158 79.9505237 118.395158 79.7976254 118.394368 79.6399983 118.365158 79.4744898 118.307526 79.3081932 118.249105 79.2136169 118.219895 79.1899729 118.219895 79.132439 118.219895 79.0938203 118.238053 79.0741169 118.275158 79.0536254 118.312263 79.039439 118.351737 79.0331339 118.393579L78.9243712 118.393579 78.777778 117.338053 78.8936339 117.338053z"/>
      <g transform="translate(42.56 112.895)">
        <mask id="b" fill="white">
          <use xlink:href="#a"/>
        </mask>
        <polygon fill="#FF8240" points="4.4 2.5 6.9 2.5 4.9 4 5.7 6.3 3.7 4.9 1.8 6.3 2.5 4 .6 2.5 3 2.5 3.7 .3" mask="url(#b)"/>
      </g>
      <path fill="#FEFEFE" d="M26.1252763 101.961947L26.1252763 102.141947C25.8848949 102.145105 25.7217508 102.160105 25.6350559 102.188526 25.4821576 102.238263 25.4057085 102.340105 25.4057085 102.492474 25.4057085 102.570632 25.4325051 102.680368 25.4868864 102.820895 25.5412678 102.961421 25.6421492 103.197474 25.7895305 103.529842L27.2806831 106.878 28.6425814 103.255895C28.7024797 103.097211 28.7481915 102.963 28.7789288 102.853263 28.8104542 102.744316 28.8262169 102.655895 28.8262169 102.586421 28.8270051 102.402474 28.7474034 102.277737 28.5897763 102.211421 28.4967763 102.174316 28.3430898 102.152211 28.1295051 102.145105L28.1295051 101.965105 30.0817169 101.968263 30.0809288 102.148263C29.8775898 102.175895 29.7270559 102.228789 29.6309034 102.308526 29.483522 102.427737 29.3377169 102.668526 29.1934881 103.030105L27.0773441 108.437211 26.9323271 108.436421 24.5789542 103.149316C24.3811322 102.707211 24.2219288 102.433263 24.1029203 102.324316 23.9831237 102.216158 23.8081576 102.153789 23.5788102 102.138L23.5788102 101.958 26.1252763 101.961947zM34.4777008 105.149684C34.4792771 104.140737 34.6794636 103.396263 35.0790483 102.916263 35.4778449 102.436263 35.9649127 102.196263 36.5402517 102.197053 37.0966754 102.197842 37.5774381 102.429947 37.983328 102.894947 38.3884297 103.359947 38.5909805 104.113105 38.5894042 105.156 38.587828 106.186263 38.3852771 106.935474 37.983328 107.402842 37.5805907 107.871789 37.0966754 108.104684 36.5307941 108.103895 35.9530907 108.103105 35.4652347 107.861526 35.0695907 107.379947 34.6739466 106.898368 34.4761246 106.155474 34.4777008 105.149684M33.3987432 105.148105C33.3971669 106.119947 33.6958703 106.916526 34.2964297 107.537053 34.8875314 108.144947 35.6315314 108.450474 36.5284297 108.451263 37.3662178 108.452842 38.0810568 108.179684 38.6737347 107.632579 39.3349805 107.019947 39.6667856 106.195737 39.6683619 105.157579 39.6699381 104.136 39.3515314 103.318105 38.7139297 102.703105 38.1267686 102.134684 37.4008958 101.850474 36.5386754 101.849684 35.6788195 101.848105 34.9545229 102.128368 34.3649975 102.691263 33.7218788 103.307053 33.4003195 104.126526 33.3987432 105.148105M44.748211 107.602737L44.7560924 102.718263C44.7560924 102.558789 44.7939229 102.456158 44.870372 102.408789 44.9460331 102.362211 45.0926263 102.339316 45.3069992 102.339316 46.1700076 102.340895 46.8627788 102.554053 47.3861008 102.980368 47.9953297 103.479316 48.29955 104.221421 48.2979737 105.206684 48.2963975 106.310368 47.9243975 107.090368 47.1819737 107.545895 46.6988466 107.841947 46.0841008 107.990368 45.3361602 107.988789 45.0957788 107.988789 44.9381517 107.963526 44.8617025 107.913789 44.7852534 107.862474 44.748211 107.759842 44.748211 107.602737L44.748211 107.602737zM42.9354992 108.333L45.5938805 108.336947C46.3071432 108.337737 46.9084907 108.247737 47.3979229 108.067737 47.6666771 107.971421 47.9251856 107.829316 48.1750246 107.643 48.5675161 107.346947 48.8622788 106.983789 49.0569483 106.553526 49.2531941 106.123263 49.3509229 105.669316 49.351711 105.190895 49.3540754 103.864579 48.8126263 102.943263 47.729728 102.426158 47.1291686 102.138 46.39305 101.993526 45.5245246 101.991947L42.9449568 101.988 42.9449568 102.168C43.2972534 102.193263 43.5250246 102.257211 43.6266941 102.356684 43.7283636 102.456947 43.7795924 102.681947 43.7788042 103.031684L43.7724992 107.291684C43.771711 107.651684 43.7181178 107.875895 43.6125076 107.964316 43.5076856 108.052737 43.2822788 108.115895 42.9354992 108.152211L42.9354992 108.333zM52.632089 108.167526C53.0206398 108.136737 53.2625975 108.068053 53.3555975 107.959895 53.4501737 107.853316 53.4966737 107.596737 53.4974619 107.191737L53.5037669 103.043842C53.5045551 102.698842 53.4525381 102.474632 53.3485042 102.373579 53.2444703 102.271737 53.0080297 102.208579 52.6415466 102.183316L52.6415466 102.002526 55.3692839 102.007263 55.3684958 102.187263C54.9957076 102.205421 54.75375 102.267 54.6441992 102.372789 54.5354364 102.477789 54.4810551 102.702789 54.4802669 103.044632L54.4771144 105.002526C55.067428 104.501211 55.5497669 104.073316 55.9241314 103.720421 56.5956229 103.087263 56.9321568 102.680684 56.9329449 102.501474 56.9329449 102.373579 56.8761992 102.289895 56.7619195 102.249632 56.6476398 102.209368 56.4868602 102.188842 56.2780042 102.188842L56.2780042 102.008842 58.7858517 102.012 58.7850636 102.192789C58.4800551 102.222789 58.2404619 102.281211 58.0647076 102.368053 57.8881653 102.455684 57.6438432 102.648316 57.3325297 102.943579L55.4599195 104.670947 57.7376314 107.133316C58.1498263 107.575421 58.4311907 107.851737 58.5809364 107.961474 58.7298941 108.071211 58.9489958 108.143053 59.2390297 108.177789L59.2382415 108.357789 56.3126822 108.353053 56.3126822 108.173053C56.5782839 108.164368 56.7564025 108.143053 56.8509788 108.110684 56.9439788 108.078316 56.9904788 108.013579 56.9912669 107.916474 56.9912669 107.862789 56.9605297 107.782263 56.9006314 107.673316 56.8399449 107.563579 56.7445805 107.436474 56.61375 107.292789L54.7726653 105.303316 54.4763263 105.577263 54.4739619 107.305421C54.4731737 107.660684 54.5267669 107.886474 54.6331653 107.981211 54.7411398 108.076737 54.9752161 108.139895 55.3361822 108.171474L55.3361822 108.352263 52.632089 108.347526 52.632089 108.167526zM64.2142932 105.907421L65.3200475 103.271368 66.4131915 105.910579 64.2142932 105.907421 64.2142932 105.907421zM64.1882847 108.365842L64.1882847 108.185053C63.962878 108.166105 63.8084034 108.138474 63.7280136 108.101368 63.5963949 108.039 63.5309797 107.927684 63.5317678 107.765842 63.5317678 107.685316 63.5554119 107.577158 63.6042763 107.439789 63.6523525 107.301632 63.8028864 106.919526 64.0519373 106.293474L66.5731831 106.297421 66.9546407 107.218737C67.0105983 107.349 67.0539458 107.472947 67.0846831 107.590579 67.1162085 107.709 67.1319712 107.791105 67.1319712 107.836895 67.1319712 107.975842 67.0902 108.063474 67.009022 108.099 66.9278441 108.135316 66.7457847 108.164526 66.4620559 108.189L66.4620559 108.369 68.9021237 108.372947 68.9029119 108.192947C68.6775051 108.161368 68.5175136 108.102947 68.4229373 108.017684 68.328361 107.932421 68.2014712 107.710579 68.0430559 107.352158L65.6684034 101.919789 65.4768864 101.919789 63.4836915 106.617947C63.1842 107.322947 62.9745559 107.753211 62.8516068 107.908737 62.7294458 108.064263 62.5465983 108.155842 62.3022763 108.182684L62.3014881 108.362684 64.1882847 108.365842z"/>
      <path fill="#232020" d="M73.5291102,52.1182105 C73.5133475,62.6158421 61.1916356,71.1058421 46.0074153,71.0829474 C30.8239831,71.0592632 18.5282797,62.5305789 18.5448305,52.0329474 C18.5605932,41.5361053 30.8830932,33.0453158 46.0657373,33.069 C61.2499576,33.0926842 73.545661,41.6205789 73.5291102,52.1182105"/>
      <path fill="#FF8240" d="M45.4308153,56.0336842 C44.5693831,55.8086842 42.6959847,59.8421053 44.2304847,62.4473684 C45.0659085,63.8668421 45.8406458,63.9931579 46.5562729,62.8239474 C48.2941119,59.9826316 46.865222,56.4086842 45.8327644,56.1386842 L45.4308153,56.0336842 M46.4120441,56.0794737 L47.1087559,56.8934211 C48.1695864,58.1344737 48.3358831,61.5813158 46.7367559,63.6544737 L47.1402814,63.6584211 C47.9449678,63.6671053 48.6211881,61.3831579 48.6850271,60.8415789 C48.8568407,59.2073684 48.3421881,55.9981579 47.2190949,55.9863158 L46.4120441,56.0794737 M61.2250525,61.6760526 C61.3803153,61.0768421 61.4488831,60.1278947 61.3062305,59.055 C61.0398407,56.985 60.2099339,56.1805263 59.6125271,55.9089474 L59.0237898,55.8410526 L59.8710356,56.8863158 C60.0830441,57.1476316 60.6410441,59.0155263 60.4542559,60.7460526 C60.4053915,61.1897368 60.2209678,61.7321053 59.9498492,62.535 C60.3935695,62.2539474 60.8183746,61.9752632 61.2250525,61.6760526 M50.8744678,55.7660526 L48.4895695,55.8884211 L48.9514169,56.7694737 C49.5196627,57.8534211 49.7513746,60.8123684 49.0483576,62.5965789 C48.8796966,63.0244737 48.6243407,63.3757895 48.2799254,63.6513158 L50.7980186,63.7776316 C50.8728915,63.7823684 51.1353407,63.2076316 51.584578,62.0557895 C52.4263068,59.8981579 51.0644085,55.7613158 50.8744678,55.7660526 M56.839078,55.665 L57.4467305,56.7394737 C57.7564678,57.1815789 58.2088576,59.2207895 58.0031542,60.1192105 L57.2646712,63.3418421 L58.8456712,62.8886842 C58.9567983,62.8697368 59.1341288,62.4126316 59.3768746,61.5181579 C59.6282898,60.5928947 59.7126203,59.6605263 59.629078,58.7226316 C59.5242559,57.5407895 58.7447898,55.6847368 58.0488661,55.6776316 L56.839078,55.665 M51.7579678,55.6255263 L51.956578,55.9910526 L52.2718322,56.8271053 C53.3878322,59.2184211 53.2215356,61.5434211 51.7760949,63.8013158 L53.9923322,63.825 C54.9333661,63.8352632 55.5567814,63.7057895 55.8610017,63.4373684 C56.2062051,63.1342105 58.3798831,58.3823684 55.653722,55.6097368 C55.380239,56.3684211 52.9441119,56.3242105 52.7037305,55.9192105 L52.3813831,55.6334211 L51.7579678,55.6255263 M54.1499593,52.1147368 C54.2650271,52.3571053 54.6803746,52.5718421 54.9112983,53.3155263 C55.0452814,53.7805263 54.9436119,54.27 54.4265949,54.5052632 C54.0364678,54.6852632 53.8031797,54.7121053 53.4035949,54.495 C52.7321034,54.1413158 52.6233407,53.4094737 53.3098068,52.62 C53.4351203,52.4778947 53.6857475,52.1684211 53.6873237,52.1226316 L53.9001203,51.5928947 L54.1499593,52.1147368 M54.1625695,51.405 L53.5438831,51.4144737 L53.5462475,51.2131579 L48.8119169,51.0631579 L48.8221627,50.0542105 L56.7965186,48.7223684 L56.7854847,49.7321053 L52.1441542,50.3905263 L52.1433661,50.4915789 L53.956078,50.5105263 C54.0908492,50.5121053 54.1578407,50.58 54.1570525,50.715 L54.1625695,51.405 M48.7819678,49.4360526 L48.7906373,48.6284211 L56.7634169,47.3976316 L56.7555356,48.2052632 L48.7819678,49.4360526 M48.8347729,48.03 L48.8434424,47.1221053 L56.8154339,46.0934211 L56.8051881,47.0013158 L48.8347729,48.03 M62.0699339,60.9631579 C65.4731034,58.1534211 67.0139085,54.7807895 67.0178492,51.9963158 C67.0241542,47.6731579 63.326222,41.8934211 54.6906203,39.0560526 C51.9896797,38.1718421 48.9592983,37.665 45.754739,37.6602632 C42.5399339,37.6547368 39.5087644,38.1528947 36.8046712,39.0284211 C28.1611881,41.8389474 24.4459169,47.6076316 24.4396119,51.9307895 C24.4325186,56.2531579 28.1304508,62.0321053 36.7652644,64.8710526 C39.4662051,65.7544737 42.4957983,66.2621053 45.7106034,66.2668421 C48.9151627,66.2715789 51.9471203,65.7734211 54.6504254,64.8986842 C55.2021203,64.7242105 55.7238661,64.5323684 56.2243322,64.3302632 L53.8796288,64.3744737 L44.9074932,64.1139474 C44.6757814,64.1013158 44.3108746,63.6260526 43.8151373,62.6889474 C43.7008576,62.6707895 43.4746627,62.7228947 43.1389169,62.8468421 L42.9048407,62.9321053 L38.5708831,63.0386842 L35.7501458,63.0110526 C34.2061881,62.9936842 33.0318661,62.7457895 32.2311203,62.2673684 L32.2618576,49.4463158 C32.2618576,48.7310526 33.7199085,48.8494737 35.4947898,48.5715789 L35.7974339,48.5234211 C34.3472644,47.9360526 34.2282559,45.6244737 35.397061,44.8018421 L36.7928492,43.8197368 C37.1806119,43.1392105 37.3823746,42.6071053 37.402078,42.2226316 L37.4935017,40.4155263 C37.5667983,38.925 40.5845695,38.6818421 41.1094678,39.5368421 L41.9212475,40.8607895 C42.6274169,42.0126316 43.9286288,42.6939474 45.8240949,42.9055263 C47.9315695,43.1407895 50.0020017,43.6263158 52.0889847,43.9863158 C55.0705017,44.4828947 56.6373153,44.7371053 56.7957305,44.7528947 L56.7862729,45.6607895 L48.8134932,46.7905263 L48.8245271,45.7807895 L53.3665525,45.1207895 C52.5429508,44.9044737 50.0453492,44.4513158 45.8784763,43.7636842 C43.4462898,43.3618421 42.0126712,42.855 41.5728915,42.2423684 L40.6822983,40.995 C40.3307898,40.5023684 39.3369508,39.7294737 39.1525271,40.7352632 C38.9326373,41.9313158 39.0768661,42.8565789 39.7798831,43.7526316 C39.8689424,43.8639474 40.1211458,44.1363158 40.2819254,44.1505263 C41.5823492,44.2618421 43.6969169,46.7068421 41.3396034,48.5313158 C41.5200864,48.5210526 41.6832305,48.5621053 41.8779,48.5692105 C42.8772559,48.6047368 43.9908915,48.72 44.8223746,49.0776316 C45.0328068,49.1763158 45.2613661,49.3728947 45.2590017,49.5805263 L45.2534847,55.5892105 L45.911578,55.5126316 C46.3001288,55.5055263 51.8289,54.7673684 59.3280102,55.4321053 C61.3306627,55.6042105 62.4167136,57.4452632 62.0730864,60.9631579 C62.0722983,60.9718421 62.0715102,60.9521053 62.0699339,60.9631579 M45.7571034,36.7452632 C58.1127051,36.7642105 68.1220271,43.5978947 68.1094169,52.0121053 C68.0960186,60.4263158 58.0662051,67.2292105 45.7106034,67.2102632 C33.3550017,67.1913158 23.3456797,60.3576316 23.359078,51.9434211 C23.3716881,43.5292105 33.4022898,36.7263158 45.7571034,36.7452632"/>
      <path stroke="#FF8240" stroke-width=".143" d="M45.4308153,56.0336842 C44.5693831,55.8086842 42.6959847,59.8421053 44.2304847,62.4473684 C45.0659085,63.8668421 45.8406458,63.9931579 46.5562729,62.8239474 C48.2941119,59.9826316 46.865222,56.4086842 45.8327644,56.1386842 L45.4308153,56.0336842 L45.4308153,56.0336842 Z M46.4120441,56.0794737 L47.1087559,56.8934211 C48.1695864,58.1344737 48.3358831,61.5813158 46.7367559,63.6544737 L47.1402814,63.6584211 C47.9449678,63.6671053 48.6211881,61.3831579 48.6850271,60.8415789 C48.8568407,59.2073684 48.3421881,55.9981579 47.2190949,55.9863158 L46.4120441,56.0794737 L46.4120441,56.0794737 Z M61.2250525,61.6760526 C61.3803153,61.0768421 61.4488831,60.1278947 61.3062305,59.055 C61.0398407,56.985 60.2099339,56.1805263 59.6125271,55.9089474 L59.0237898,55.8410526 L59.8710356,56.8863158 C60.0830441,57.1476316 60.6410441,59.0155263 60.4542559,60.7460526 C60.4053915,61.1897368 60.2209678,61.7321053 59.9498492,62.535 C60.3935695,62.2539474 60.8183746,61.9752632 61.2250525,61.6760526 L61.2250525,61.6760526 Z M50.8744678,55.7660526 L48.4895695,55.8884211 L48.9514169,56.7694737 C49.5196627,57.8534211 49.7513746,60.8123684 49.0483576,62.5965789 C48.8796966,63.0244737 48.6243407,63.3757895 48.2799254,63.6513158 L50.7980186,63.7776316 C50.8728915,63.7823684 51.1353407,63.2076316 51.584578,62.0557895 C52.4263068,59.8981579 51.0644085,55.7613158 50.8744678,55.7660526 L50.8744678,55.7660526 Z M56.839078,55.665 L57.4467305,56.7394737 C57.7564678,57.1815789 58.2088576,59.2207895 58.0031542,60.1192105 L57.2646712,63.3418421 L58.8456712,62.8886842 C58.9567983,62.8697368 59.1341288,62.4126316 59.3768746,61.5181579 C59.6282898,60.5928947 59.7126203,59.6605263 59.629078,58.7226316 C59.5242559,57.5407895 58.7447898,55.6847368 58.0488661,55.6776316 L56.839078,55.665 L56.839078,55.665 Z M51.7579678,55.6255263 L51.956578,55.9910526 L52.2718322,56.8271053 C53.3878322,59.2184211 53.2215356,61.5434211 51.7760949,63.8013158 L53.9923322,63.825 C54.9333661,63.8352632 55.5567814,63.7057895 55.8610017,63.4373684 C56.2062051,63.1342105 58.3798831,58.3823684 55.653722,55.6097368 C55.380239,56.3684211 52.9441119,56.3242105 52.7037305,55.9192105 L52.3813831,55.6334211 L51.7579678,55.6255263 L51.7579678,55.6255263 Z M54.1499593,52.1147368 C54.2650271,52.3571053 54.6803746,52.5718421 54.9112983,53.3155263 C55.0452814,53.7805263 54.9436119,54.27 54.4265949,54.5052632 C54.0364678,54.6852632 53.8031797,54.7121053 53.4035949,54.495 C52.7321034,54.1413158 52.6233407,53.4094737 53.3098068,52.62 C53.4351203,52.4778947 53.6857475,52.1684211 53.6873237,52.1226316 L53.9001203,51.5928947 L54.1499593,52.1147368 L54.1499593,52.1147368 Z M54.1625695,51.405 L53.5438831,51.4144737 L53.5462475,51.2131579 L48.8119169,51.0631579 L48.8221627,50.0542105 L56.7965186,48.7223684 L56.7854847,49.7321053 L52.1441542,50.3905263 L52.1433661,50.4915789 L53.956078,50.5105263 C54.0908492,50.5121053 54.1578407,50.58 54.1570525,50.715 L54.1625695,51.405 L54.1625695,51.405 Z M48.7819678,49.4360526 L48.7906373,48.6284211 L56.7634169,47.3976316 L56.7555356,48.2052632 L48.7819678,49.4360526 L48.7819678,49.4360526 Z M48.8347729,48.03 L48.8434424,47.1221053 L56.8154339,46.0934211 L56.8051881,47.0013158 L48.8347729,48.03 L48.8347729,48.03 Z M62.0699339,60.9631579 C65.4731034,58.1534211 67.0139085,54.7807895 67.0178492,51.9963158 C67.0241542,47.6731579 63.326222,41.8934211 54.6906203,39.0560526 C51.9896797,38.1718421 48.9592983,37.665 45.754739,37.6602632 C42.5399339,37.6547368 39.5087644,38.1528947 36.8046712,39.0284211 C28.1611881,41.8389474 24.4459169,47.6076316 24.4396119,51.9307895 C24.4325186,56.2531579 28.1304508,62.0321053 36.7652644,64.8710526 C39.4662051,65.7544737 42.4957983,66.2621053 45.7106034,66.2668421 C48.9151627,66.2715789 51.9471203,65.7734211 54.6504254,64.8986842 C55.2021203,64.7242105 55.7238661,64.5323684 56.2243322,64.3302632 L53.8796288,64.3744737 L44.9074932,64.1139474 C44.6757814,64.1013158 44.3108746,63.6260526 43.8151373,62.6889474 C43.7008576,62.6707895 43.4746627,62.7228947 43.1389169,62.8468421 L42.9048407,62.9321053 L38.5708831,63.0386842 L35.7501458,63.0110526 C34.2061881,62.9936842 33.0318661,62.7457895 32.2311203,62.2673684 L32.2618576,49.4463158 C32.2618576,48.7310526 33.7199085,48.8494737 35.4947898,48.5715789 L35.7974339,48.5234211 C34.3472644,47.9360526 34.2282559,45.6244737 35.397061,44.8018421 L36.7928492,43.8197368 C37.1806119,43.1392105 37.3823746,42.6071053 37.402078,42.2226316 L37.4935017,40.4155263 C37.5667983,38.925 40.5845695,38.6818421 41.1094678,39.5368421 L41.9212475,40.8607895 C42.6274169,42.0126316 43.9286288,42.6939474 45.8240949,42.9055263 C47.9315695,43.1407895 50.0020017,43.6263158 52.0889847,43.9863158 C55.0705017,44.4828947 56.6373153,44.7371053 56.7957305,44.7528947 L56.7862729,45.6607895 L48.8134932,46.7905263 L48.8245271,45.7807895 L53.3665525,45.1207895 C52.5429508,44.9044737 50.0453492,44.4513158 45.8784763,43.7636842 C43.4462898,43.3618421 42.0126712,42.855 41.5728915,42.2423684 L40.6822983,40.995 C40.3307898,40.5023684 39.3369508,39.7294737 39.1525271,40.7352632 C38.9326373,41.9313158 39.0768661,42.8565789 39.7798831,43.7526316 C39.8689424,43.8639474 40.1211458,44.1363158 40.2819254,44.1505263 C41.5823492,44.2618421 43.6969169,46.7068421 41.3396034,48.5313158 C41.5200864,48.5210526 41.6832305,48.5621053 41.8779,48.5692105 C42.8772559,48.6047368 43.9908915,48.72 44.8223746,49.0776316 C45.0328068,49.1763158 45.2613661,49.3728947 45.2590017,49.5805263 L45.2534847,55.5892105 L45.911578,55.5126316 C46.3001288,55.5055263 51.8289,54.7673684 59.3280102,55.4321053 C61.3306627,55.6042105 62.4167136,57.4452632 62.0730864,60.9631579 C62.0722983,60.9718421 62.0715102,60.9521053 62.0699339,60.9631579 L62.0699339,60.9631579 Z M45.7571034,36.7452632 C58.1127051,36.7642105 68.1220271,43.5978947 68.1094169,52.0121053 C68.0960186,60.4263158 58.0662051,67.2292105 45.7106034,67.2102632 C33.3550017,67.1913158 23.3456797,60.3576316 23.359078,51.9434211 C23.3716881,43.5292105 33.4022898,36.7263158 45.7571034,36.7452632 Z"/>
      <path fill="#FEFEFE" d="M80.9799076,23.8766842 L80.9806958,23.4061579 L81.3826449,23.4069474 C81.5268737,23.4069474 81.6324839,23.5135263 81.6324839,23.6422105 C81.6324839,23.7716842 81.5189924,23.8853684 81.3976195,23.8774737 L80.9799076,23.8766842 M80.6465263,24.7719474 L80.9783314,24.7719474 L80.9791195,24.1198421 L81.2983144,24.1198421 C81.4417551,24.1206316 81.5859839,24.2422105 81.5851958,24.4995789 C81.5851958,24.6969474 81.5930771,24.7198421 81.6080517,24.7735263 L81.9264585,24.7735263 C81.8815347,24.6140526 81.9264585,24.4474737 81.8894161,24.288 C81.8515856,24.1056316 81.7388822,24.0148421 81.6316958,23.9990526 C81.8058737,23.9690526 81.9501025,23.8095789 81.9501025,23.5972105 C81.9508907,23.3469474 81.7617381,23.1495789 81.4669754,23.1487895 L80.6488907,23.148 L80.6465263,24.7719474 M81.2660008,25.1895789 C80.6000263,25.1887895 80.0703992,24.6574737 80.0719754,23.9887895 C80.0727636,23.3137895 80.6031788,22.7753684 81.2699415,22.7769474 C81.9288229,22.7777368 82.4663314,23.3256316 82.4647551,23.9927368 C82.4639669,24.6527368 81.9256703,25.1903684 81.2660008,25.1895789 M81.2660008,25.4098421 C82.0391619,25.4106316 82.6917381,24.7751053 82.6925263,23.9856316 C82.6941025,23.2040526 82.0509839,22.5582632 81.2699415,22.5566842 C80.4825941,22.5558947 79.8465686,23.1922105 79.8449924,23.9887895 C79.8442042,24.7703684 80.4778653,25.4082632 81.2660008,25.4098421"/>
      <g transform="translate(9.458)">
        <mask id="d" fill="white">
          <use xlink:href="#c"/>
        </mask>
        <path fill="#FEFEFE" d="M49.5699458,11.1762632 C47.8518102,12.1086316 46.6491153,13.7002105 45.6213864,15.3344211 C43.5359797,18.6565263 42.5476576,22.8296842 44.3666746,23.5449474 C49.3729119,25.4538947 57.6175983,6.79073684 49.5699458,11.1762632 L49.5699458,11.1762632 Z M27.0938949,20.0831053 L27.0198102,20.6649474 C27.0079881,21.8049474 19.7673864,26.8173158 19.2219966,23.7020526 C19.1471237,23.2883684 19.4757763,21.8041579 20.1811576,20.3941579 L23.7766322,12.8223158 C23.9350475,12.4954737 23.9311068,12.3967895 23.9531746,12.2483684 C23.8830305,11.9831053 23.7782085,11.8946842 23.2840475,11.9823158 L21.0449542,12.5791579 L21.5091661,11.4304737 L28.8222763,9.34468421 C28.5787424,9.85310526 28.3186576,10.3528421 28.042022,10.8431053 C24.5505814,17.0199474 22.5337424,20.9878421 21.9899288,22.746 C21.9497339,22.8667895 21.9757424,22.9757368 22.0963271,22.9686316 C23.2123271,22.8794211 24.3724627,22.3354737 25.5783102,21.3375789 L27.0938949,20.0831053 L27.0938949,20.0831053 Z M44.3335729,24.7346842 C43.0000475,24.7220526 41.363878,24.8144211 40.6214542,23.5173158 C37.8558864,18.6691579 48.0748525,8.65626316 53.3813695,9.52468421 C60.5092678,10.6828421 51.0705559,24.8081053 44.3335729,24.7346842 L44.3335729,24.7346842 Z M61.9121492,24.4962632 C60.5139966,24.7157368 58.9668864,24.5152105 57.2723949,23.8931053 L59.5083356,21.8649474 C61.7450644,24.5325789 65.4981661,22.7981053 65.729878,20.8765263 C65.7732254,20.5149474 65.2916746,19.2762632 64.2875898,17.1596842 C62.9146576,14.2678421 63.8288949,11.961 67.0303017,10.2383684 C70.3089458,8.47547368 72.7174881,9.50889474 73.2944034,9.81205263 L71.752022,12.6794211 L70.6730644,12.6675789 C70.7936492,12.5499474 70.9796492,12.3652105 71.1120559,11.9515263 C71.7599034,9.93678947 67.0870475,9.65652632 66.2461068,12.4544211 C66.0419797,13.1357368 66.4778186,14.5662632 67.5559881,16.7467895 C70.2742678,22.2431053 62.9272678,24.3367895 61.9121492,24.4962632 L61.9121492,24.4962632 Z M36.522361,21.3391579 L36.522361,21.3391579 C35.4607424,23.1028421 30.1723525,25.4191579 29.2935814,24.5388947 C28.181522,23.4296842 28.8869034,21.8073158 29.9453695,19.7562632 C33.0324966,13.7775789 34.3534119,11.0649474 34.4156746,10.9402105 L31.6603525,11.0215263 L33.0064881,9.60757895 L35.2763186,9.63205263 L37.4775814,5.55205263 L40.1848271,5.02626316 L38.0852339,9.66126316 L42.8369034,9.76626316 L41.3820051,11.0688947 L37.2773949,10.9702105 C34.2556831,16.9623158 32.5745898,20.3870526 31.9401407,21.8799474 C31.8171915,22.1688947 31.576022,22.9031053 32.1687,22.9038947 C33.2287424,22.9054737 33.9057508,22.5375789 34.9405729,21.7283684 L36.4995051,20.2765263 L36.522361,21.3391579 L36.522361,21.3391579 Z M61.6087169,2.90257895 L64.8487424,2.93652632 L61.3178949,10.3291579 L60.3461237,10.3196842 L61.6087169,2.90257895 L61.6087169,2.90257895 Z M26.7597254,6.99363158 L28.3635814,4.86757895 L29.4701237,4.31415789 C29.9185729,4.08994737 30.6334119,3.68731579 31.6185814,3.10389474 C31.9700898,2.89547368 32.3286915,2.69652632 32.692022,2.50942105 L31.3096322,4.73336842 L26.7597254,6.99363158 L26.7597254,6.99363158 Z M10.9197763,22.2746842 L8.74294576,24.6723158 L0.175123729,24.6588947 L2.86030169,22.2265263 L4.56897966,22.2644211 C5.38942881,21.8546842 5.86388644,21.5657368 6.87585254,20.3831053 C8.39931864,18.7488947 14.481361,6.51126316 14.4711153,6.26889474 L13.2826068,6.31231579 C10.255378,6.42126316 8.40010678,6.87442105 7.76250508,7.23757895 C5.86546271,8.31836842 4.92994576,9.62968421 4.91181864,11.6025789 L1.65918305,12.7883684 C1.53702203,10.9512632 5.37208983,3.87363158 13.7365729,4.15468421 L21.6218695,4.23757895 C22.6464458,4.23442105 24.2392678,4.29363158 26.4775729,2.68784211 L27.954539,1.29678947 L29.8673441,0.553894737 C29.3195898,2.03810526 25.0266153,6.81915789 17.2792424,6.29889474 C17.021522,7.02915789 15.5492847,9.97389474 12.8648949,15.1354737 C11.0293271,18.6652105 8.62314915,21.0502105 6.43686102,22.3473158 L10.9197763,22.2746842 Z" mask="url(#d)"/>
      </g>
      <path fill="#FF8240" d="M27.2005297 7.23639474L27.0555127 7.22534211 26.9971907 7.35876316C25.3507754 11.0906053 22.8673602 16.0824474 21.726928 17.6495526 20.309072 19.5963947 19.1087415 20.9471842 18.2559788 21.5550789L18.4939958 21.8898158C19.3948347 21.2479737 20.5943771 19.9027105 22.0587331 17.8919211 23.2054703 16.3177105 25.5887924 11.5595526 27.3155975 7.65323684 35.6611653 8.21928947 39.2408771 2.35271053 39.6727754 1.63507895L39.5923856 1.13060526C39.1723093 1.83007895 35.4018686 7.86955263 27.2005297 7.23639474M18.5605144 25.284C18.3611161 25.284 9.99190424 25.2445263 9.99190424 25.2445263L10.3323788 25.6574211 18.7638534 25.6961053 20.9525059 23.0955789 20.8437432 22.6274211C20.8437432 22.6274211 18.6779466 25.1300526 18.5605144 25.284M41.0766025 5.47665789C40.9505008 5.53271053 36.8703229 7.33034211 36.8703229 7.33034211L37.3550263 7.57665789 41.3737297 5.79560526 42.4109161 3.7635 42.32895 3.09402632C42.32895 3.09402632 41.1404415 5.35586842 41.0766025 5.47665789M32.6671958 21.6938684L33.0439246 21.5643947C33.0912127 20.9904474 36.5054161 14.5120263 38.8059839 10.3388684L38.6972212 9.78307895C32.3913483 21.2257105 32.5915347 21.5659737 32.6671958 21.6938684M36.7596686 21.6686842C36.4207703 22.0823684 33.5204314 25.4842105 29.9359907 25.3452632L30.0148042 25.3776316C34.02405 25.5323684 36.9905924 22.0428947 37.1190585 21.8778947L37.1553127 21.8321053 37.3089992 20.9068421 36.9007449 20.4094737C36.9007449 20.4094737 36.7714907 21.5597368 36.7596686 21.6686842M46.5018915 21.6837632C46.1622051 22.0974474 43.2626542 25.4992895 39.6782136 25.3603421L39.7570271 25.3927105C43.7662729 25.5474474 46.7336034 22.0579737 46.8612814 21.8929737L46.8975356 21.8471842 47.051222 20.9219211 46.6429678 20.4245526C46.6429678 20.4245526 46.5137136 21.5748158 46.5018915 21.6837632"/>
      <polygon fill="#FF8240" points="48.5 9.4 48.9 9.4 50.4 5.9 50.2 5.3"/>
      <path fill="#FF8240" d="M54.2622686 18.3029211C53.5947178 19.8589737 53.0201669 21.9526579 54.0691754 23.0902895L54.0683873 23.0902895C53.5048703 22.0087105 53.7649551 20.5063421 54.6397856 18.4655526 56.1577347 14.9271316 59.3544127 11.1037105 61.0512686 10.7460789L61.0512686 10.7279211C58.4811585 10.9995 55.7148025 14.9152895 54.2622686 18.3029211M64.8433831 9.67326316C65.2587305 9.84615789 65.7576203 10.5558947 65.935739 11.7495789 65.9719932 11.9935263 65.999578 12.3006316 65.9987898 12.6637895 65.9956373 14.6840526 65.1026797 18.4403684 59.7937983 22.8448421 59.7930102 22.8448421 59.0915695 23.3382632 59.0915695 23.3382632 56.8059763 24.9535263 56.1920186 25.3869474 53.0520864 25.3822105L53.0883407 25.3790526C55.9406034 25.6158947 57.019561 25.3072105 59.3287983 23.6745789L60.042061 23.1724737C66.4795525 17.8324737 66.5922559 13.3632632 66.3424169 11.6887895 66.1642983 10.4990526 65.5432475 9.93694737 64.907222 9.67168421L64.8433831 9.67326316zM71.0909339 11.0307632C70.8631627 11.0047105 69.9946373 10.8981316 69.9946373 10.8981316L70.3776712 11.3268158 71.3321034 11.4720789 74.7305441 4.30681579 74.6359678 3.57813158C74.6359678 3.57813158 71.2138831 10.7797105 71.0909339 11.0307632M81.6203466 13.2601579L80.2694822 13.2577895 80.8574314 13.6706842 81.8646686 13.6722632 83.3030161 10.9864737 83.17455 10.3991053C83.17455 10.3991053 81.7291093 13.0604211 81.6203466 13.2601579M76.2442373 12.2703947C75.9408051 13.0117105 76.155178 13.9898684 76.881839 15.1788158 77.3397458 15.9264474 78.736322 18.5656579 77.5320508 21.1535526 76.5768305 23.2069737 74.1706525 24.5775 70.5736017 25.1175L70.5877881 25.1490789C74.3267034 24.5877632 76.8881441 23.5117105 77.904839 21.3272368 78.7765169 19.4553947 78.5251017 17.0767105 77.2325593 14.9640789 76.5784068 13.8935526 76.3727034 13.0401316 76.6249068 12.4267105 76.9590763 11.6088158 77.9663136 10.9377632 78.6267712 10.7735526L78.6244068 10.7703947C77.8890763 10.9527632 76.6572203 11.2590789 76.2442373 12.2703947M16.6191 8.493C15.7214136 9.27852632 15.2099136 10.3822105 15.0507102 11.8451053L11.3984898 13.2101053 11.7515746 13.5172105 15.4502949 12.1072105 15.3833034 12.0574737 15.439261 12.0858947C15.5622102 10.6308947 16.0350915 9.55168421 16.8894305 8.80326316 18.0243458 7.80931579 19.8417864 7.39484211 22.2842186 7.56142105L22.460761 7.158C19.8291763 6.95510526 17.862778 7.40352632 16.6191 8.493M52.468472 10.4574474C52.468472 10.4574474 51.1956331 11.6463947 51.0852941 11.7474474 50.9316076 11.7474474 47.1501331 11.6495526 47.1501331 11.6495526L47.0925992 11.7624474C46.9294551 12.0837632 43.3631415 19.0603421 42.1076415 21.6387632 41.9831161 21.9521842 41.8964212 22.3319211 42.1880314 22.4211316 42.9769551 20.7261316 46.8798025 13.0895526 47.3968195 12.0735 47.6332602 12.0735 51.2444975 12.1595526 51.2444975 12.1595526L52.5480737 10.9248158 52.468472 10.4574474z"/>
      <g transform="translate(0 75.79)">
        <mask id="f" fill="white">
          <use xlink:href="#e"/>
        </mask>
        <path fill="#FEFEFE" d="M25.0301619,0.649894737 C24.6132381,0.443052632 24.1104076,0.338052632 23.5366449,0.335684211 C22.0305178,0.333315789 20.3257805,1.13226316 18.4705093,2.71436842 C16.9706873,3.99884211 15.3022042,6.45331579 13.5115602,10.0114737 C13.5115602,10.0114737 13.4358992,10.1606842 13.3862466,10.2577895 C13.2136449,10.257 9.14056017,10.2475263 8.70156864,10.2459474 C8.88520424,9.87647368 9.84830593,7.92963158 9.84830593,7.92963158 C10.0847466,7.45436842 10.6135856,6.50778947 11.4190602,5.11594737 L11.5530432,4.88463158 L10.581272,4.88147368 C8.66689068,4.87752632 6.9180178,5.36384211 5.38194153,6.327 C3.84192458,7.29252632 2.74168729,8.59515789 2.11039068,10.1977895 C1.92045,10.6793684 1.79828898,11.172 1.74627203,11.6614737 L1.71080593,12.0017368 L4.09728051,10.3122632 L4.08309407,10.2183158 C4.00664492,9.71226316 4.06890763,9.20068421 4.26594153,8.69857895 C4.90433136,7.07857895 6.45617034,6.25989474 8.87889915,6.26463158 L8.90727203,6.26463158 C8.69920424,6.68068421 5.78625508,12.5038421 5.78625508,12.5038421 C5.1644161,13.7512105 4.66867881,14.6164737 4.31165339,15.0743684 C3.96960254,15.5133158 3.51011949,15.8843684 2.95290763,16.1812105 C2.85675508,16.1701579 2.01345,16.0730526 2.01345,16.0730526 L-0.000236440678,17.5106842 L4.3140178,17.7372632 L6.21972966,16.3801579 C6.21972966,16.3801579 4.90196695,16.2933158 4.29746695,16.2538421 C4.92324661,15.9585789 5.45129746,15.6577895 5.78389068,15.3491053 C6.21342458,14.9535789 6.66266186,14.3014737 7.11899237,13.4141053 L7.64231441,12.3877895 C7.64231441,12.387 7.92052627,11.8241053 8.01589068,11.6322632 C8.19085678,11.6330526 12.2300517,11.6425263 12.6753483,11.6441053 C12.6509161,11.6914737 12.6193907,11.7514737 12.6193907,11.7514737 C11.2622212,14.4838421 10.3464076,16.4464737 9.89795847,17.5856842 L9.76870424,17.9141053 L13.2388653,16.5625263 C13.2396534,16.5625263 13.8607042,16.3154211 13.8607042,16.3154211 C14.2784161,16.1527895 14.5258907,15.9617368 14.61495,15.7343684 L14.7449924,15.1596316 L14.4549585,15.3096316 C13.8867127,15.5835789 13.4477212,15.7225263 13.1505941,15.7217368 C13.0575941,15.7217368 12.9362212,15.7067368 12.8905093,15.6388421 C12.8581958,15.5922632 12.8235178,15.4667368 12.9488314,15.1485789 C13.2932466,14.2714737 13.8717381,13.0146316 14.6677551,11.4112105 L15.3092975,10.1598947 C17.1149161,6.55436842 18.4311025,4.21357895 19.2231788,3.19910526 C19.991611,2.21463158 20.8664415,1.71726316 21.8232381,1.71963158 C22.2779924,1.72042105 22.6610263,1.88621053 22.9951958,2.22726316 L23.0881958,2.32121053 L25.2602975,0.764368421 L25.0301619,0.649894737 Z" mask="url(#f)"/>
      </g>
      <path fill="#FEFEFE" d="M26.8297907 84.8830263L26.9369771 84.7259211 26.7627992 84.6540789C26.3687314 84.4859211 25.8430449 84.3998684 25.2022907 84.3982895 23.5401127 84.3943421 21.8093669 85.0890789 20.0581297 86.4635526 18.3139856 87.8348684 17.0537568 89.4817105 16.3144856 91.3598684 15.9503669 92.2843421 15.8920449 92.9088158 16.1371551 93.2696053 16.2861127 93.4890789 16.537528 93.6019737 16.8850958 93.6035526 17.5179686 93.6035526 18.3762483 93.2419737 19.5087992 92.4943421 20.3852059 91.9172368 21.280528 91.1625 22.1774263 90.3177632 22.0749686 90.5080263 21.8148839 90.9880263 21.8148839 90.9880263 21.8140958 90.9903947 21.4357907 91.7253947 21.4357907 91.7253947 21.4365788 91.7238158 21.05985 92.5014474 21.05985 92.5014474 20.8982822 92.9119737 20.8833076 93.2032895 21.01335 93.3959211 21.1102907 93.5411842 21.2781636 93.6138158 21.5114517 93.6146053 22.1545703 93.6161842 22.9986636 93.1701316 24.0910195 92.2559211 25.1542144 91.3590789 25.3575534 91.0503947 25.4182398 90.8972368 25.4552822 90.8025 25.4828669 90.6185526 25.2543076 90.4259211L25.1376636 90.3280263 25.0383585 90.4440789C23.8821636 91.7932895 23.2705703 92.0972368 22.9561042 92.1082895 22.9584686 92.0790789 22.96635 92.0277632 23.0065449 91.9275L23.5763669 90.7780263 23.8853161 90.1922368 26.052689 86.1414474C26.052689 86.1390789 26.3963161 85.5627632 26.3963161 85.5627632L26.6958076 85.0780263C26.6934432 85.0811842 26.8297907 84.8830263 26.8297907 84.8830263M24.4921805 85.9922368C24.3810534 86.1967105 24.0295449 86.8432895 24.0295449 86.8432895 23.233528 88.3227632 22.1041297 89.6285526 20.6736636 90.7235526 19.6254432 91.5264474 18.8436127 91.9338158 18.3502398 91.9322368 18.1894602 91.9314474 18.1492653 91.8722368 18.1366551 91.8517105 18.0846381 91.7767105 18.0334093 91.5588158 18.2722144 90.9525 18.8696212 89.4343421 19.6593331 88.1451316 20.6192822 87.1235526 21.5618924 86.1193421 22.4414517 85.6125 23.2327398 85.6140789 23.7056212 85.6148684 24.1241212 85.7522368 24.4921805 85.9922368M34.9626407 90.3143684L36.8060898 86.8998947C36.806878 86.8975263 37.3569966 85.7575263 37.3569966 85.7575263 37.4807339 85.4409474 37.5422085 85.1788421 37.5414203 84.9664737 37.5414203 84.8062105 37.5059542 84.6751579 37.4342339 84.5685789 37.3168017 84.3956842 37.115039 84.3064737 36.8336746 84.3064737 36.2071068 84.3056842 35.3409458 84.6562105 34.185539 85.3777895 33.2579034 85.9564737 32.3176576 86.7033158 31.3821407 87.5425263 31.4373102 87.4327895 31.6737508 86.9622632 31.6737508 86.9622632 31.674539 86.9606842 32.0362932 86.217 32.0362932 86.217 32.0347169 86.2201579 32.3610051 85.5191053 32.3610051 85.5191053 32.5375475 85.0683158 32.5540983 84.7493684 32.4106576 84.5377895 32.3018949 84.3767368 32.1119542 84.2962105 31.8455644 84.2946316 31.4278525 84.2946316 30.7658186 84.612 29.8232085 85.2688421 28.8813864 85.9241053 28.3470305 86.4372632 28.1894034 86.8367368 28.1334458 86.9780526 28.1704881 87.1304211 28.2981661 87.2930526L28.4116576 87.4367368 28.5338186 87.2993684C29.6474542 86.0583158 30.2086068 85.7977895 30.4836661 85.7977895L30.4844542 85.7977895C30.4860305 85.8041053 30.4883949 85.8056842 30.4883949 85.8230526 30.4883949 85.8712105 30.4734203 85.9754211 30.3953949 86.1743684L29.9887169 87.0830526 29.7404542 87.5646316C29.7396661 87.567 27.2767424 92.4680526 27.2767424 92.4680526L26.931539 93.1462105C26.9299627 93.1501579 26.6509627 93.7406842 26.6509627 93.7406842L28.6378525 93.0412105 29.7656746 90.7817368C30.3638695 89.5864737 31.2654966 88.4512105 32.4429712 87.4083158 33.6070475 86.3772632 34.5614797 85.857 35.2794712 85.8585789 35.3291237 85.8585789 35.3913864 85.8656842 35.4142424 85.8988421 35.4315814 85.9233158 35.4757169 86.0306842 35.3393695 86.3733158 35.1762254 86.7885789 34.9019542 87.3609474 34.522861 88.0754211L33.3225305 90.2977895C32.8472847 91.1867368 32.506022 91.8933158 32.3066237 92.4001579 32.1198356 92.8722632 32.0993441 93.2046316 32.2419966 93.4154211 32.342878 93.5646316 32.5154797 93.6412105 32.7534966 93.6412105 33.2169203 93.6427895 33.9136322 93.3175263 34.8822508 92.6472632 35.8508695 91.9777895 36.4033525 91.4417368 36.5735898 91.0106842 36.6106322 90.9151579 36.6397932 90.732 36.4222678 90.5496316L36.3119288 90.4556842 36.2118356 90.5622632C34.9523949 91.8980526 34.3809966 92.1830526 34.1240644 92.1854211 34.1232763 92.1822632 34.1232763 92.1838421 34.1224881 92.1798947 34.1224881 92.1459474 34.1327339 92.0693684 34.1910559 91.9201579 34.3439542 91.5293684 34.604039 90.9909474 34.9626407 90.3143684M46.4851042 90.4760526L46.3660958 90.3813158 46.2707314 90.4981579C45.1555195 91.8481579 44.5565364 92.1489474 44.2467992 92.1607895 44.2467992 92.1268421 44.2562568 92.0589474 44.3106381 91.9223684L44.8315958 90.8218421 45.1169008 90.2463158 48.9732483 82.5694737C49.7369517 81.0410526 50.4683415 79.9476316 51.1485025 79.3215789 51.8121127 78.7089474 52.5821212 78.3994737 53.4372483 78.4010526 53.8029432 78.4018421 54.1024347 78.4476316 54.3262653 78.5392105L54.4058669 78.5715789 56.5172822 77.0321053 56.2075449 76.9476316C55.9750449 76.8836842 55.6763415 76.8505263 55.3216805 76.8497368 53.859689 76.8473684 52.2928754 77.5113158 50.6622229 78.8242105 49.0426042 80.1284211 47.7177483 81.7894737 46.7207568 83.7623684 46.7207568 83.7623684 46.466189 84.27 46.3708246 84.4634211 46.2652144 84.4578947 46.1138924 84.4484211 46.1138924 84.4484211L46.1178331 84.4492105C44.6219517 84.4452632 42.9826297 85.1644737 41.2463669 86.5863158 39.5179856 88.0026316 38.2853415 89.6257895 37.5815364 91.4107895 37.2205703 92.3281579 37.1654008 92.9494737 37.4112992 93.3126316 37.5649856 93.5392105 37.8242822 93.6536842 38.183672 93.6552632 38.8173331 93.6568421 39.7465449 93.2392105 41.0241127 92.3802632 41.9580534 91.7534211 42.7209686 91.0871053 43.3932483 90.4073684 43.2718754 90.6434211 43.0653839 91.0428947 43.0653839 91.0428947 43.0638076 91.0460526 42.4001975 92.4797368 42.4001975 92.4797368 42.3016805 92.73 42.2528161 92.9392105 42.2528161 93.1113158 42.2536042 93.2447368 42.2835534 93.3544737 42.3434517 93.4436842 42.4435449 93.5897368 42.6145703 93.6647368 42.8502229 93.6663158 43.4862483 93.6671053 44.3122144 93.2226316 45.3761975 92.3060526 46.3984093 91.4171053 46.5985958 91.1052632 46.6608585 90.9481579 46.6971127 90.8534211 46.7246975 90.6663158 46.4851042 90.4760526M44.5786042 85.6657895C44.9238076 85.6657895 45.2634941 85.7889474 45.5929347 86.0005263 45.4944178 86.2026316 45.1523669 86.8965789 45.1515788 86.8989474 44.3831466 88.425 43.3057653 89.7292105 41.9470195 90.7760526 40.9121975 91.5789474 40.1280025 91.9847368 39.6165025 91.9839474 39.4572992 91.9831579 39.4171042 91.9231579 39.4037059 91.905 39.351689 91.8284211 39.3012483 91.6097368 39.5400534 91.0034211 40.1516466 89.4497368 40.9468754 88.1526316 41.9044602 87.1484211 42.8454941 86.1623684 43.7447568 85.6642105 44.5786042 85.6657895M60.8280686 90.3640263C60.8288568 90.3624474 62.6242297 86.9677105 62.6242297 86.9677105L63.20745 85.7542895C63.3209415 85.4669211 63.376111 85.2261316 63.3753229 85.0279737 63.3753229 84.8716579 63.3398568 84.7421842 63.2689246 84.6371842 63.149128 84.4611316 62.9386958 84.3703421 62.6439331 84.3695526 62.0110602 84.3679737 61.1661788 84.7587632 60.0596364 85.5656053 59.2407636 86.1640263 58.4321364 86.9219211 57.6384839 87.7571842 57.6692212 87.6963947 57.7440941 87.5503421 57.7440941 87.5503421 57.7448822 87.5495526 58.1657466 86.7048158 58.1657466 86.7048158L58.592128 85.8016579C58.7174415 85.4850789 58.7789161 85.2221842 58.778128 85.0098158 58.778128 84.8503421 58.7426619 84.7192895 58.6717297 84.6150789 58.5566619 84.4461316 58.3604161 84.3592895 58.0869331 84.3585 56.9094585 84.3561316 55.2819585 85.3824474 53.1319246 87.4690263 53.2257127 87.2842895 53.361272 87.0150789 53.361272 87.0150789 53.3620602 87.0135 53.7246025 86.2698158 53.7246025 86.2698158 53.7230263 86.2729737 54.0501025 85.5711316 54.0501025 85.5711316 54.2258568 85.1235 54.2416195 84.8045526 54.0981788 84.5937632 53.988628 84.4319211 53.7955347 84.3482368 53.5259924 84.3474474 53.1090686 84.3466579 52.448611 84.6648158 51.5075771 85.3208684 50.5673314 85.9761316 50.0345517 86.4892895 49.8769246 86.8887632 49.8217551 87.0300789 49.8587975 87.1832368 49.9856873 87.3450789L50.0983907 87.4887632 50.2213398 87.3529737C51.3357636 86.1103421 51.8937636 85.8506053 52.1656703 85.8506053 52.1664585 85.8561316 52.1680347 85.8577105 52.1672466 85.8742895 52.1680347 85.9224474 52.1554246 86.0266579 52.0758229 86.2279737L51.6604754 87.1342895C51.6612636 87.1319211 51.4106364 87.6182368 51.4106364 87.6182368 51.4098483 87.6206053 48.9595347 92.5200789 48.9595347 92.5200789L48.6135432 93.1982368C48.6127551 93.2029737 48.3321788 93.7950789 48.3321788 93.7950789L50.3001534 93.0940263 51.4271873 90.8345526C51.9465686 89.8145526 52.8072127 88.7227105 53.9838992 87.5898158 55.4277636 86.1995526 56.1528483 85.9082368 56.5067212 85.9090263 56.5808059 85.9098158 56.6296703 85.9256053 56.6517381 85.9587632 56.6619839 85.9729737 56.6777466 86.0077105 56.6777466 86.0819211 56.6785347 86.1766579 56.6525263 86.3345526 56.5508568 86.5911316L56.2340263 87.2953421 55.9897042 87.7595526C55.988128 87.7627105 53.8830178 91.8861316 53.8830178 91.8861316 53.8806534 91.8885 53.5685517 92.5327105 53.5685517 92.5327105 53.5693398 92.5295526 53.2225602 93.2092895 53.2225602 93.2092895 53.221772 93.2132368 52.9411958 93.8077105 52.9411958 93.8077105L54.8997127 93.1050789 56.04645 90.8463947C56.5642551 89.8256053 57.4248992 88.7337632 58.60395 87.6008684 60.0509669 86.2106053 60.7815686 85.9200789 61.1393822 85.9208684 61.1874585 85.9216579 61.2505093 85.9287632 61.2741534 85.9635 61.2922805 85.9903421 61.3411449 86.1087632 61.190611 86.4916579L60.9092466 87.0837632C60.9076703 87.0869211 60.6286703 87.6450789 60.6286703 87.6450789L60.3559754 88.1637632C60.3543992 88.1661316 59.1729839 90.3798158 59.1729839 90.3798158 58.679611 91.3011316 58.3383483 91.9950789 58.1610178 92.4435 57.9765941 92.9140263 57.9584669 93.2479737 58.104272 93.4635 58.2122466 93.6221842 58.3990347 93.7050789 58.6599076 93.7042895 59.0902297 93.7058684 59.7648737 93.3790263 60.7240347 92.7087632 61.6824076 92.0377105 62.2277975 91.5079737 62.3917297 91.0903421 62.434289 90.9837632 62.4405941 90.8140263 62.2270093 90.6166579L62.1080008 90.5069211 62.0039669 90.6332368C61.6595517 91.0540263 61.266272 91.4369211 60.8383144 91.7692895 60.3008059 92.1845526 60.062789 92.2477105 59.9682127 92.2485 59.9674246 92.2445526 59.9666364 92.2469211 59.9666364 92.2398158 59.9666364 92.2042895 59.9776703 92.1253421 60.0367805 91.9745526 60.1841619 91.5971842 60.4513398 91.0548158 60.8280686 90.3640263M70.7191703 90.8939211L71.0289076 90.3065526 73.1954924 86.2565526C73.1962805 86.2541842 73.5399076 85.6770789 73.5399076 85.6770789L73.8393992 85.1939211C73.8370347 85.1962895 73.9725941 84.9989211 73.9725941 84.9989211L74.0797805 84.8418158 73.9063907 84.7676053C73.5099585 84.6002368 72.9850602 84.5149737 72.3458822 84.5133947 70.682128 84.5094474 68.9513822 85.2049737 67.2017212 86.5778684 65.456789 87.9483947 64.1973483 89.5952368 63.457289 91.4741842 63.0931703 92.3986579 63.0356364 93.0231316 63.2799585 93.3839211 63.4289161 93.6049737 63.6811195 93.7170789 64.0278992 93.7170789 64.6599839 93.7194474 65.5182636 93.3570789 66.6523907 92.6094474 67.5295856 92.0315526 68.4241195 91.2776053 69.3210178 90.4336579 69.2169839 90.6231316 68.9584754 91.1039211 68.9584754 91.1039211 68.9568992 91.1062895 68.5785941 91.8405 68.5785941 91.8405 68.5801703 91.8389211 68.2034415 92.6165526 68.2034415 92.6165526 68.0418737 93.0262895 68.0268992 93.3199737 68.1569415 93.5118158 68.2546703 93.6547105 68.4217551 93.7281316 68.6542551 93.7281316 69.2973737 93.7312895 70.1414669 93.2860263 71.234611 92.3702368 72.2978059 91.4741842 72.5011449 91.1662895 72.5626195 91.0107632 72.5988737 90.9168158 72.6264585 90.7312895 72.397111 90.5402368L72.2812551 90.4439211 72.18195 90.5583947C71.0265432 91.9076053 70.4141619 92.2099737 70.0996958 92.2226053 70.1020602 92.1933947 70.1107297 92.1420789 70.1501364 92.0410263L70.7191703 90.8939211M70.3763314 85.7276053C70.8484246 85.7283947 71.2661364 85.8681316 71.6341958 86.1073421 71.5246449 86.3102368 71.1723483 86.9583947 71.1723483 86.9583947 70.3779076 88.4386579 69.2485093 89.7436579 67.8164669 90.8378684 66.7690347 91.6415526 65.9872042 92.0473421 65.4930432 92.0457632 65.3322636 92.0457632 65.2928568 91.9857632 65.2786703 91.9676053 65.2274415 91.8910263 65.1770008 91.6731316 65.4158059 91.0668158 66.0132127 89.5494474 66.8029246 88.2618158 67.7628737 87.2394474 68.7054839 86.2344474 69.5842551 85.7260263 70.3763314 85.7276053M82.4962017 90.5630526L82.3779814 90.4698947 82.2818288 90.5851579C81.1674051 91.9351579 80.5676339 92.2367368 80.2571085 92.247 80.2586847 92.2130526 80.2681424 92.1459474 80.3217356 92.0093684L80.8434814 90.9096316C80.8442695 90.9088421 81.1287864 90.3341053 81.1287864 90.3341053L84.9851339 82.6572632C85.7480492 81.1296316 86.4786508 80.037 87.1588119 79.4093684 87.822422 78.7967368 88.5924305 78.4864737 89.4475576 78.4880526 89.8140407 78.4888421 90.1127441 78.5362105 90.3373627 78.6277895L90.4161763 78.6593684 92.5283797 77.1198947 92.2178542 77.0346316C91.983778 76.9714737 91.6866508 76.9383158 91.332778 76.9375263 89.8723627 76.9343684 88.304761 77.5991053 86.6733203 78.9127895 85.0544898 80.217 83.7288458 81.8780526 82.7326424 83.8493684 82.7318542 83.8501579 82.4780746 84.3585789 82.3811339 84.5512105 82.2771 84.5456842 82.1249898 84.537 82.1249898 84.537L82.1289305 84.537C80.6330492 84.5338421 78.9945153 85.2530526 77.2582525 86.6733158 75.5290831 88.0904211 74.296439 89.7135789 73.593422 91.4993684 73.2324559 92.4151579 73.1780746 93.0372632 73.4231847 93.4004211 73.5760831 93.627 73.8369559 93.7414737 74.1963458 93.7414737 74.8292186 93.7438421 75.7584305 93.3277895 77.0359983 92.4680526 77.9691508 91.8404211 78.7328542 91.1748947 79.4051339 90.4959474 79.283761 90.7304211 79.0772695 91.1306842 79.0772695 91.1306842 79.0756932 91.1338421 78.4120831 92.5675263 78.4120831 92.5675263 78.312778 92.8177895 78.2639136 93.0277895 78.2639136 93.1991053 78.2647017 93.3325263 78.295439 93.4414737 78.3553373 93.5298947 78.4554305 93.6775263 78.6264559 93.7533158 78.8621085 93.7533158 79.498922 93.7556842 80.3241 93.3096316 81.3880831 92.3938421 82.4095068 91.5056842 82.6104814 91.1930526 82.6719559 91.0351579 82.7089983 90.9412105 82.7365831 90.7541053 82.4962017 90.5630526M80.591278 85.7527895C80.9356932 85.7543684 81.2745915 85.8767368 81.6048203 86.0875263 81.5055153 86.2896316 81.1650407 86.9851579 81.1634644 86.9867368 80.3942441 88.5127895 79.3168627 89.817 77.9589051 90.8630526 76.9240831 91.6659474 76.1398881 92.0717368 75.6283881 92.0709474 75.4683966 92.0701579 75.4282017 92.0109474 75.4155915 91.992 75.3635746 91.9154211 75.3123458 91.6983158 75.551939 91.0912105 76.1635322 89.5375263 76.9595492 88.2412105 77.9163458 87.2362105 78.8565915 86.2501579 79.7558542 85.7512105 80.591278 85.7527895M91.3312017 84.4395789C90.2687949 84.4372105 88.9541847 85.1485263 87.310922 86.6161579 85.7031254 88.053 84.6060407 89.4961579 84.0496169 90.9077368 83.7319983 91.7145789 83.6807695 92.3935263 83.8975068 92.9248421 84.125278 93.4837895 84.5839729 93.7672105 85.2625576 93.7695789 86.293439 93.7711579 87.5875576 93.1514211 89.1118119 91.9237895 89.9046763 91.2851053 90.0701847 91.0261579 90.1245661 90.8872105 90.2025915 90.6882632 90.1608203 90.4987895 90.0055576 90.3511579L89.8897017 90.2406316 89.7840915 90.3606316C88.6625746 91.6269474 87.6112017 92.2672105 86.6591339 92.2656316 86.3036847 92.2648421 86.0625153 92.1701053 85.9222271 91.9782632 85.8174051 91.8353684 85.7653881 91.6356316 85.7638119 91.3798421 85.7638119 91.1003684 85.8300153 90.7466842 85.9537525 90.3353684 87.2896424 89.9951053 88.5640576 89.3990526 89.7368034 88.5558947 90.9450153 87.6874737 91.7418203 86.7795789 92.1051508 85.8558947 92.2076085 85.5953684 92.2588373 85.3711579 92.2580492 85.1808947 92.257261 85.0174737 92.2194305 84.8801053 92.1414051 84.7648421 91.9956 84.5508947 91.7229051 84.4403684 91.3312017 84.4395789M90.2680068 86.8064211C90.0355068 87.3953684 89.560261 87.918 88.8540915 88.3616842 88.1439814 88.8069474 87.4244136 89.0319474 86.7150915 89.0303684 86.6496763 89.0287895 86.5803203 89.0027368 86.5117525 88.9869474 86.9736 88.1374737 87.5048034 87.4048421 88.1053627 86.8372105 88.7319305 86.2427368 89.2915068 85.9411579 89.7675407 85.9419474 90.0536339 85.9435263 90.240422 86.0051053 90.3208119 86.1251053 90.4098712 86.2561579 90.3917441 86.4914211 90.2680068 86.8064211"/>
      <path fill="#FF8240" d="M5.03342797,83.9242895 C4.65985169,84.4295526 4.47227542,85.0145526 4.47463983,85.6658684 C4.47463983,85.8095526 4.49276695,85.9611316 4.51089407,86.1103421 C3.82915678,86.6771842 2.02353814,88.0042895 2.00462288,88.0185 L2.45464831,88.1977105 C2.53503814,88.1377105 4.22795339,86.8958684 4.85767373,86.3598158 L4.94515678,86.2840263 L4.9278178,86.1695526 C4.80565678,85.3998158 4.95225,84.7256053 5.36365678,84.1690263 C6.00992797,83.2942895 7.13696186,82.9721842 8.04804661,82.8442895 L8.26320763,82.4092895 C7.78086864,82.4763947 5.94214831,82.6942895 5.03342797,83.9242895"/>
      <polygon fill="#FF8240" points="9.2 85.9 9.7 85.9 12 81.5 11.8 81"/>
      <path fill="#FF8240" d="M8.19219661 87.8512105L7.15422203 89.9117368C6.95009492 90.2962105 6.08866271 91.5704211 5.40771356 91.9138421L5.99960339 91.9509474C6.83187458 91.4741053 7.48445085 90.1675263 7.51597627 90.1067368 7.51597627 90.1067368 8.2584 88.5862105 8.49247627 88.1583158 8.72576441 88.1638421 11.9271712 88.1196316 11.9271712 88.1196316L12.1194763 87.7359474 8.25288305 87.7398947 8.19219661 87.8512105zM4.32284492 93.7939737C4.18492119 93.7852895.207988983 93.5721316.207988983 93.5721316L.519302542 93.9431842 4.43948898 94.2131842 6.21673475 92.9658158 6.20806525 92.4629211C6.20806525 92.4629211 4.43239576 93.7181842 4.32284492 93.7939737M14.8956051 91.5212368C14.8932407 91.7604474 14.8900881 92.0896579 14.0538763 92.4457105L10.1242322 93.9907105 10.7121814 94.1951842 14.2154441 92.8254474C15.2155881 92.3983421 15.1950966 92.4457105 15.1990373 92.0407105L15.2289864 91.8243947 14.8869356 91.2346579 14.8956051 91.5212368zM23.131622 78.6966316C22.8321305 78.4526842 22.0550288 77.8961053 21.2353678 77.9726842 20.7624864 78.0176842 20.3597492 78.2624211 20.0381898 78.7013684L19.3982237 79.5611053C18.9379525 80.169 18.7653508 80.3979474 18.2790712 81.2892632 17.7644186 82.2311053 13.8268932 89.4468947 13.0592492 91.1474211L13.5636559 91.1379474C14.3265712 89.4500526 18.1253847 82.4268947 18.6400373 81.4866316 19.1113424 80.6221579 19.2666051 80.4168947 19.7260881 79.8082105L20.3699949 78.9445263C20.6221983 78.6003158 20.916961 78.4163684 21.2724102 78.3824211 22.1094102 78.3042632 22.9755712 79.1032105 22.9842407 79.1111053L23.1111305 79.2295263 25.2280627 77.6134737 25.3068763 77.0355789C25.3068763 77.0355789 23.3656983 78.5174211 23.131622 78.6966316M18.4820161 91.6908947L18.9517449 91.5140526C20.091389 87.8437895 22.7726263 85.9372105 23.7948381 85.9348421L23.2896432 85.7753684C22.5692873 85.7769474 19.6784059 87.4040526 18.4820161 91.6908947"/>
      <polygon fill="#FF8240" points="23.7 91.5 24.4 90.9 27.1 85.9 27.1 85.2"/>
      <path fill="#FF8240" d="M21.9889831 93.9153947L22.1442458 93.9146053C24.1264068 93.8782895 25.6372627 91.7759211 25.6695763 91.6709211L25.5229831 91.2438158C25.5198305 91.2935526 23.8647458 93.7022368 21.9889831 93.9153947M17.0317678 93.8982632L17.1870305 93.9290526C19.1384542 93.8295789 19.9746661 93.1861579 20.6532508 92.553L21.0536237 91.7453684C20.4168102 92.3398421 19.0241746 93.7301053 17.0317678 93.8982632M65.6051949 91.7797105L66.0733475 91.6028684C67.2137797 87.9318158 69.8942288 86.0260263 70.9180169 86.0220789L70.4120339 85.8633947C69.691678 85.8641842 66.8007966 87.4928684 65.6051949 91.7797105"/>
      <polygon fill="#FF8240" points="70.8 91.6 71.5 91 74.3 86 74.2 85.3"/>
      <path fill="#FF8240" d="M69.1116102 94.0035L69.2668729 94.0027105C71.2490339 93.9656053 72.7598898 91.8640263 72.7914153 91.7582368L72.6456102 91.3319211C72.6432458 91.3824474 70.9873729 93.7895526 69.1116102 94.0035M64.1974271 93.9421579L64.3526898 93.9729474C66.3041136 93.8742632 67.1403254 93.2308421 67.8196983 92.5976842L68.2200712 91.7892632C67.5832576 92.3845263 66.190622 93.774 64.1974271 93.9421579M32.6202229 84.4204737C32.7825788 84.6320526 33.0560619 85.1949474 32.3467398 86.376L33.0269008 85.7854737C33.3657992 85.101 33.1057144 84.9620526 32.8062229 84.5752105L32.6202229 84.4204737zM28.9946415 93.3761053C28.8141585 93.429 26.9052941 93.9863684 26.9052941 93.9863684L27.5042771 94.2413684 29.3091076 93.7132105 29.3445737 93.6145263C29.3627008 93.564 31.1990568 88.5666316 34.9450653 86.5937368L35.1657432 86.1508421C31.3590483 87.5892632 29.2775822 92.634 28.9946415 93.3761053M28.7250992 87.5031316L29.218472 87.5591842C29.4486076 87.2860263 29.706328 86.9260263 30.0239466 86.6307632L30.2391076 85.9778684C29.7441585 86.2905 28.9615398 87.2220789 28.7250992 87.5031316M37.722061 84.6342632L37.8056034 84.7921579C37.9451034 85.0337368 38.1192814 85.3321579 37.0324424 87.2797895L34.5923746 91.7387368 35.3340102 91.1158421 37.3918322 87.4803158C38.5062559 85.4829474 38.2028237 85.2137368 37.9498322 84.7779474L37.722061 84.6342632zM33.0138966 93.9703421L33.4521 93.9142895C35.3097356 93.5992895 36.4848458 92.6953421 36.9466932 91.6398158L36.7796085 91.1171842C36.5234644 91.8442895 35.4082525 93.3750789 33.0138966 93.9703421M43.3045042 93.9187105L43.5519788 93.9179211C45.7690042 93.3502895 47.0158347 92.1968684 47.046572 91.6118684L46.8345636 91.2250263C46.8203771 91.5084474 45.4750297 93.3621316 43.3045042 93.9187105M41.6089093 92.4610263C40.7726975 93.1091842 39.6283246 93.9949737 37.8849686 94.0218158L37.9448669 94.0573421C39.5873415 94.2712895 41.0288415 93.4312895 41.8603246 92.7862895L41.9753924 92.6978684 42.3379347 91.8428684 41.6089093 92.4610263zM39.7660907 91.6940526L40.1893195 91.6151053C41.8459805 87.2903684 44.167828 86.0343158 44.5831754 85.908L44.3033873 85.9206316C43.8549381 86.0564211 41.5496415 86.7543158 39.7660907 91.6940526M54.3066407 79.1163947C53.8266661 79.0082368 51.6009712 78.6695526 50.2264627 81.3506053L45.0011237 91.3998158 45.8664966 90.6213947 50.5921576 81.5377105C51.9674542 78.8542895 54.1907847 79.5048158 54.2845729 79.5340263L54.3775729 79.5632368 56.4905644 78.1477105 56.6371576 77.5745526C56.6371576 77.5745526 54.4461407 79.0240263 54.3066407 79.1163947M79.2389161 93.9065526L79.4871788 93.9065526C81.7034161 93.3381316 82.9510347 92.1855 82.9809839 91.5997105L82.7697636 91.2128684C82.754789 91.4970789 81.4102297 93.3507632 79.2389161 93.9065526M77.5436364 92.4490263C76.7074246 93.0963947 75.5630517 93.9829737 73.8196958 94.0098158L73.8795941 94.0453421C75.5220686 94.2585 76.9635686 93.4192895 77.7950517 92.7742895L77.9101195 92.6858684 78.2726619 91.8308684 77.5436364 92.4490263zM75.7012119 91.6820526L76.1244407 91.6031053C77.7803136 87.2783684 80.102161 86.0231053 80.5182966 85.896L80.2377203 85.9078421C79.7892712 86.0444211 77.4839746 86.7423158 75.7012119 91.6820526M90.2408161 79.1052632C89.7616297 78.9955263 87.5343585 78.6584211 86.1606381 81.3378947L80.9368754 91.3886842 81.8014602 90.6102632 86.5263331 81.5273684C87.9024178 78.8423684 90.1257483 79.4936842 90.2195364 79.5221053L90.3125364 79.5505263 92.4247398 78.135 92.5713331 77.5626316C92.5713331 77.5626316 90.3803161 79.0128947 90.2408161 79.1052632"/>
      <polygon fill="#FF8240" points="50.4 87.7 50.9 87.7 51.4 87.2 51.7 86.3"/>
      <path fill="#FF8240" d="M55.2874754 93.4054737C55.0943822 93.4662632 53.1823653 94.0607368 53.1823653 94.0607368L53.6812551 94.3054737 55.6287381 93.7307368 55.6555347 93.6170526C55.6649924 93.5799474 56.7581364 89.4217895 60.7642297 86.2654737L60.568772 86.3688947C56.5019924 89.4138947 55.44195 92.8331053 55.2874754 93.4054737M50.5426627 93.4189737C50.3479932 93.4789737 48.4367644 94.0742368 48.4367644 94.0742368L48.9364424 94.3181842 50.8831373 93.7442368 50.910722 93.6297632C50.9201797 93.5926579 52.0133237 89.4352895 56.0194169 86.2789737L55.8239593 86.3823947C51.7571797 89.4281842 50.6971373 92.8458158 50.5426627 93.4189737M58.9869839 84.4260789C59.1603737 84.8334474 59.0594924 85.7350263 58.5984331 86.3942368L59.2297297 85.8084474C59.423611 85.3189737 59.2785941 85.0426579 59.0555517 84.5160789L58.9869839 84.4260789zM54.4127237 84.2924211C54.5853254 84.7005789 54.4844441 85.6013684 54.0241729 86.2605789L54.6546814 85.674C54.8485627 85.1861053 54.7035458 84.9082105 54.4805034 84.3824211L54.4127237 84.2924211zM60.3656695 91.7763947L61.0939068 91.2379737C63.7814492 86.7632368 63.6939661 85.4440263 63.7530763 84.8685L63.7183983 84.7011316C63.6742627 85.1282368 63.083161 87.2487632 60.3656695 91.7763947M58.6881229 94.014L58.9119534 94.0218947C61.368572 93.8450526 62.5562924 92.1595263 62.7746059 91.6724211L62.6012161 91.1979474C62.4561992 91.6747895 61.0517415 93.6658421 58.6881229 94.014"/>
      <g transform="translate(85.907 84.474)">
        <mask id="h" fill="white">
          <use xlink:href="#g"/>
        </mask>
        <path fill="#FF8240" d="M6.72303305,0.237315789 C6.73170254,0.276 7.04459237,4.19889474 0.410855085,6.15442105 L0.292634746,6.18994737 L0.243770339,6.42126316 C0.167321186,6.77257895 -0.0580855932,7.19494737 0.496761864,7.66784211 L0.521194068,7.57152632 C0.39745678,7.30310526 0.445533051,7.13336842 0.494397458,6.93757895 C0.525134746,6.81442105 0.61734661,6.64231579 0.645719492,6.51284211 C6.16424492,4.84152632 6.78293136,1.75231579 6.77899068,0.558631579 C6.77899068,0.437052632 6.77032119,0.317842105 6.75377034,0.241263158 L6.72303305,0.237315789 Z" mask="url(#h)"/>
      </g>
      <path fill="#FF8240" d="M86.9538178 88.7530263L87.5126059 88.6543421C87.4519195 88.7814474 88.4812246 86.7248684 89.7201737 86.0632895L89.7115042 86.0451316C88.2108941 86.7011842 86.9285975 88.8201316 86.9538178 88.7530263M85.032028 94.0127368L85.0698585 94.0474737C88.8663076 93.9637895 90.5875958 91.7903684 90.5860195 91.3024737L90.379528 90.8058947C90.3661297 91.1445789 89.1579178 93.7301053 85.032028 94.0127368"/>
    </g>
  </g>
</svg>
