<?xml version="1.0" encoding="utf-8"?>
<!-- Generator: Adobe Illustrator 17.0.0, SVG Export Plug-In . SVG Version: 6.00 Build 0)  -->
<!DOCTYPE svg PUBLIC "-//W3C//DTD SVG 1.0//EN" "http://www.w3.org/TR/2001/REC-SVG-20010904/DTD/svg10.dtd">
<svg version="1.0" id="Layer_1" xmlns="http://www.w3.org/2000/svg" xmlns:xlink="http://www.w3.org/1999/xlink" x="0px" y="0px"
	 width="128.091px" height="16.549px" viewBox="0 0 128.091 16.549" enable-background="new 0 0 128.091 16.549"
	 xml:space="preserve">
<g>
	<path fill="#FFFFFF" d="M0,0.274h6.24c5.029,0,8.503,3.452,8.503,7.955v0.046c0,4.503-3.474,8-8.503,8H0V0.274z M3.52,3.451v9.646
		h2.72c2.88,0,4.823-1.943,4.823-4.777V8.274c0-2.834-1.943-4.823-4.823-4.823H3.52z"/>
	<path fill="#FFFFFF" d="M18.034,0.274h3.52v16h-3.52V0.274z"/>
	<path fill="#FFFFFF" d="M24.457,13.943l2.08-2.491c1.44,1.188,2.949,1.943,4.777,1.943c1.44,0,2.309-0.572,2.309-1.509V11.84
		c0-0.891-0.548-1.349-3.223-2.034c-3.223-0.823-5.303-1.714-5.303-4.892V4.869c0-2.903,2.332-4.823,5.6-4.823
		c2.332,0,4.32,0.731,5.943,2.034l-1.829,2.652C33.395,3.749,32,3.154,30.651,3.154s-2.057,0.617-2.057,1.394v0.046
		c0,1.051,0.686,1.394,3.452,2.103c3.246,0.846,5.074,2.011,5.074,4.8v0.046c0,3.177-2.423,4.96-5.874,4.96
		C28.823,16.503,26.377,15.657,24.457,13.943z"/>
</g>
<path fill="#FFFFFF" d="M43.567,3.52h-4.869V0.274h13.257V3.52h-4.869v12.754h-3.52V3.52z"/>
<path fill="#FFFFFF" d="M54.652,0.274h7.314c2.035,0,3.612,0.572,4.663,1.623c0.892,0.892,1.372,2.148,1.372,3.657V5.6
	c0,2.583-1.395,4.206-3.429,4.96l3.909,5.714h-4.114l-3.429-5.12h-2.766v5.12h-3.52V0.274z M61.738,8.046
	c1.714,0,2.697-0.915,2.697-2.263V5.737c0-1.508-1.051-2.286-2.766-2.286h-3.498v4.595H61.738z"/>
<path fill="#FFFFFF" d="M70.469,8.32V8.274C70.469,3.726,74.058,0,78.995,0c4.938,0,8.48,3.68,8.48,8.229v0.046
	c0,4.548-3.589,8.274-8.526,8.274C74.012,16.549,70.469,12.869,70.469,8.32z M83.795,8.32V8.274c0-2.743-2.012-5.029-4.846-5.029
	c-2.834,0-4.8,2.24-4.8,4.983v0.046c0,2.743,2.011,5.028,4.846,5.028S83.795,11.063,83.795,8.32z"/>
<g>
	<path fill="#FFFFFF" d="M90.948,0.274h1.806v9.555l9.188-9.555h2.354l-6.88,6.995l7.155,9.006h-2.263L96.16,8.526l-3.406,3.451
		v4.297h-1.806V0.274z"/>
	<path fill="#FFFFFF" d="M107.542,0.274h1.806v16h-1.806V0.274z"/>
	<path fill="#FFFFFF" d="M114.033,0.274h5.555c5.029,0,8.503,3.452,8.503,7.955v0.046c0,4.503-3.474,8-8.503,8h-5.555V0.274z
		 M115.839,1.943v12.663h3.749c4.046,0,6.629-2.743,6.629-6.286V8.274c0-3.543-2.583-6.332-6.629-6.332H115.839z"/>
</g>
</svg>
