<svg version="1.1" id="Layer_1" xmlns="http://www.w3.org/2000/svg" xmlns:xlink="http://www.w3.org/1999/xlink" x="0px" y="0px" viewBox="0 0 778.5 404.8" style="enable-background:new 0 0 778.5 404.8;" xml:space="preserve">
  <title>Levain Bakery Logo</title>
  <style type="text/css">
    .st0{fill:#FFFFFF;}
  </style>
  <path id="Logotype_4_" class="st0" d="M430.1,300.2h5.1c4.8,0,6.8-1.6,6.8-4.3c0-2.7-2.1-4.3-6.8-4.3h-5.1V300.2z M440.9,284.4
    c0-2.4-1.9-3.8-6.2-3.8h-4.6v7.7h4.6C439,288.3,440.9,286.9,440.9,284.4 M445.9,295.9c0,5.1-3.6,7.7-10.6,7.7h-13.9v-3.4h3.6
    l1.4-1.4v-16.7l-1.4-1.4h-3.6v-3.4h13.4c6.5,0,9.9,2.5,9.9,7.2c0,2.5-1.5,4.6-4.5,5.3C443.3,290,445.9,293,445.9,295.9 M466,281.1
    l3.8,10.4h-7.6L466,281.1z M464,277.3l-8.7,23h-2.9v3.4h11v-3.4h-2.6l-1.4-1.2l1.5-4.3h10l1.6,4.3l-1.4,1.2h-2.6v3.4h11.3v-3.4H477
    l-8.7-23H464z M512.6,277.3v3.4h-2.5l-7.5,7.6l8.7,12h2.5v3.4h-11.3v-3.4h2.2l1.3-1.2l-6.1-8.2l-4.9,4.9v3l1.4,1.4h2.3v3.4H488v-3.4
    h2.3l1.4-1.4v-16.7l-1.4-1.4H488v-3.4h10.9v3.4h-2.3l-1.4,1.4v9.6l9.7-9.8l-1.4-1.2h-1.4v-3.4H512.6z M546.9,277.3v9.8h-3.5v-5
    l-1.4-1.4h-10.3v8h3.8l1.4-1.4v-2.8h3V296h-3v-2.8l-1.4-1.4h-3.8v8.5h10.5l1.4-1.4V294h3.5v9.6h-24.1v-3.4h3.6l1.4-1.4v-16.7
    l-1.4-1.4h-3.6v-3.4H546.9z M565.8,288.8h5c4.8,0,6.7-1.5,6.7-4.1c0-2.6-1.9-4.1-6.7-4.1h-5V288.8z M558.7,303.6v-3.4h2.1l1.4-1.4
    v-16.7l-1.4-1.4h-2.1v-3.4h12.2c7,0,10.5,2.6,10.5,7.4c0,4.2-2.5,6.6-7.6,7.3l6.5,8.1h4.1v3.5h-8.8v-3.4l-6.2-8.1h-3.5v6.7l1.4,1.4
    h3.1v3.4H558.7z M617.9,277.3v3.4H615l-8.9,13.5v4.7l1.4,1.4h5.3v3.4h-17.4v-3.4h5.3l1.4-1.4v-4.7l-8.9-13.5h-2.9v-3.4h12.1v3.4
    h-2.6l-1.4,1.2l5.8,9.4l5.8-9.4l-1.3-1.2h-2.7v-3.4H617.9z M235.2,256.8c8.8-3.8,18.3-12.2,25.7-20.8c6.6-7.6,14.6-17.5,19.9-25
    c1.9-2.7,5.7-9.3,6.4-11.2c0.7-1.9,1.7-4.9-0.2-6.2c-1.5-1.1-3.6,1-4.9,2.5c-6.5,7.9-20.9,22.3-28.1,28.9
    c-5.7,5.2-10.8,9.6-15.7,12.4c-4,2.4-7.6,2.9-10.4,1.8c-3.2-1.3-4.5-4.9-5.2-9.1c-1.1-6.8-0.3-22.1,0.2-25c0.5-2.9,1.9-4.6,4.4-5.2
    c3-0.7,7.2-2.3,9.7-3.6c5.2-2.8,9.9-5.7,15.6-10.4c10.4-8.5,18.1-17.1,23.4-32.5c1.5-4.4,2.4-11.3-0.6-14.3
    c-1.4-1.4-3.3-2.6-4.9-3.3c-4.2-1.8-10.6-0.7-14.5,0.9c-11.1,4.6-19.2,10.7-26.3,17.8c-4,4-8.6,10.6-12,16.6
    c-3.8,6.7-7.4,16.5-9.3,19.5c-1.7,2.7-3.5,3.7-7.2,4.2c-4.1,0.5-4.3,0.3-7.8,0.7c-0.7,0.1-1.3,0.2-1.9,0.6c-1.3,1-0.8,3.3,0.4,5
    c1,1.5,2.7,1.9,4.5,2.4c2.1,0.5,4.7,0.6,6.9,0.6c2.8,0,2.9,0.7,2.6,3.3c-0.8,6.7-1.8,16.7-1.4,24.1c0.4,6.9,1.9,13.8,4.6,17.9
    c2,3.1,5.7,6.6,9.5,7.9C224.8,259.2,230.2,259,235.2,256.8z M225.4,186.2c1.1-7.1,6.5-16.4,12.7-23.7c3.1-3.6,10.9-10.3,14.8-13
    c2.9-2,5.6-3.7,8.3-3.7c1.7,0,3.4,0.6,4.2,2.4c0.8,1.7-0.1,3.8-0.5,5.1c-2.7,7.8-7.9,13.2-13.9,19.6c-6.6,7-18.1,13.5-23.1,15.3
    C226.2,188.9,225.1,188.3,225.4,186.2z M370.2,155.5c-2.2,5.1-5.4,12-8.3,17.1c-13,23-37.1,60.5-47.7,73.9c-2.6,3.2-5.4,6.8-8.6,6.8
    c-1.5,0-3.3-0.5-4.3-1.4c-2.4-2.2-2.5-6-2.4-12.1c0.1-17.7-0.3-36.5-0.7-48.6c-0.3-10.9-1.1-20.3-1.9-29.1c-0.4-4.3-1-10.1,0-13.8
    c0.7-2.8,2.6-6.4,4.8-9.2c1.8-2.2,4-3.8,5.9-3.8c2.4,0,3.2,0.9,3.8,4.5c0.7,4.1,0.9,13.1,1,17c0.2,7.3,0.3,19.6,0.2,27.1
    c-0.2,12.1-0.2,26.7,0.1,41.2c0,0.9,1.2,1.2,1.7,0.5c9.9-13.6,22.4-35,31.1-53.5c4.8-10.1,8.4-17.1,12.3-27.4c1.6-4.1,3-8,4.6-10.8
    c1.5-2.7,3.6-3.8,7.1-0.4c1.6,1.6,2.9,5.4,3.3,8.3C372.8,146.6,372,151.1,370.2,155.5z M189.9,223.2c-3.6,1-20.4,5.6-34.7,10.2
    c-5.6,1.8-28.3,9.8-35.3,11.8c-3.6,1-7.6,0.9-10.3,0.2c-3.4-0.8-6.1-3.3-7.3-5.6c-1.8-3.7-0.9-8.5-0.3-12.1
    c2.1-13.4,5.6-23.6,9.3-37.2c3.2-11.8,6.5-24.3,9-35.2c2.5-10.7,7.4-27.2,9.5-32.1c0.9-2.1,3-5.4,6.5-6.6c3.4-1.2,5.5-1.1,7.4-0.5
    c3.1,0.8,4.5,2.7,3.3,6.9c-1.6,5.3-3.8,11.6-5,15.9c-4,14.5-7.9,26.9-12.8,45.1c-2.6,9.6-8.4,32.7-10.8,44.7
    c-0.2,0.8,0.6,1.5,1.3,1.2c5.8-1.8,20.3-6.6,29.3-8.7c9.3-2.1,17.1-3.8,24.3-4.9c4.3-0.6,11.9-1.6,16.2-1.5c1.6,0,3.4,0.2,4.6,1.7
    c0.4,0.5,1,1.7,1.1,2.4C195.8,221.8,193.5,222.3,189.9,223.2z M672.5,203.6c-1.9,2.2-4.4,5.3-8.6,9.6c-3.5,3.7-8.1,7.5-11.8,9.3
    c-4.1,2-7,0.9-9-1.5c-4.9-6.1-5.6-23.5-5.4-38.6c0.1-7.2,1.1-14.1,2.7-26.6c1.5-11.7-1.1-15.8-13-16.1
    c-13.9-0.3-23.9,10.6-31.6,19.5c-3.5,4.1-7.1,9-10.3,12.9c-0.9,1.1-5.8,7.2-8.1,10.2c-0.9,1.2-2,2.9-3,2.7c-1.1-0.3-1.5-1.9-1.5-4
    c-0.2-3.9,0.9-13.4,2-19.6c0.6-3.8,0.9-6.2,1.5-8.9c0.4-1.7,0.9-4.8,0.1-6.4c-0.7-1.4-1.9-2.7-3-3c-2.8-0.9-4.8,0.7-5.6,3.3
    c-1.9,5.9-4.9,14.3-7.1,20.4c-4.7,13.1-9.6,23.9-15.7,33.4c-8,12.5-20.1,26.3-27.6,32.6c-4.4,3.6-9.6,6.9-13.6,5.1
    c-4.1-1.8-4.7-7.3-4.9-12.3c-0.2-4.8,1.5-20.2,3.9-32.9c2.6-13.6,7-29,10.8-42.3c0.7-2.4,0.9-5.5-0.2-8.2c-0.7-1.6-1.8-3.1-3.6-4.2
    c-4.7-2.9-6.8,1.4-7.9,4.8c-4.9,14.4-11.6,30.8-17.2,44.4c-6.1,14.8-17,29.2-24.3,35.5c-2.8,2.5-6,5.1-8.6,5.5
    c-2.4,0.4-4-0.7-4.8-1.7c-1.1-1.3-1.8-3.3-2.2-6.6c-0.6-5.2-0.5-16.2,2.4-28.7c3.7-16,10.1-33.8,13-43.8c1.8-6.3,1.4-11.9-7.2-15.9
    c-4.6-2.1-12.7-1.5-18.4-0.3c-9.9,2.2-19.5,7.8-28.6,13.9c-6.6,4.4-13.1,11.3-20.5,20c-1.5,1.8-4.9,7-8.2,12.3
    c-4,6.4-7.9,12.7-9.7,19.5c-3.3,12.3-1.9,20.7-0.3,25.7c1,3.1,3.7,7.4,7.1,9.6c4.2,2.7,8.7,2.7,12.5,1.5c6.8-2.3,14.8-8.6,19.4-12.5
    c10.5-8.9,17.6-18.4,22.6-25.8c1.2-1.8,2.3-3.6,3.5-5.4c0.5-0.7,1.2-0.5,1.1,0.4c-0.2,1.4-0.3,2.7-0.6,6.5c-0.5,6.5-1,17.5-0.2,25.1
    c0.6,5.4,1.7,11.2,5.6,15.4c1.7,1.8,4.7,4,8.6,4.7c7.4,1.3,14.2-4.4,19.2-8.2c6.2-4.7,12.6-12.3,18-18.8c0.9-1.1,1.9-0.4,1.9,0.8
    c0,5.4,0.1,11.5,0.9,16c1.1,6.1,4.4,14.4,9.8,17.2c7.8,4,16.2,0.5,25.5-6.4c4.9-3.6,12.6-11.8,16.2-16.5c5.4-7.1,10.7-13.8,13.5-18
    c0.9-1.4,1.7-2.5,2.5-2.3c1,0.3,0.8,1.2,0.4,3.6c-0.8,5.7-2.7,15-3.3,23.5c-0.2,2.8-0.1,5.3,2.8,6.7c1.1,0.5,2.7,1,4,1
    c1.8,0.1,3.3-0.9,4.3-3c1.3-2.7,2.4-6.4,3.5-8.9c3.7-9,5.3-13.1,10.1-21.5c4.7-8.3,10.2-16.1,16.3-23.4c7.6-9.3,13.6-16.4,23.6-23.4
    c1.8-1.3,4.1-2,5.2-1.4c1.1,0.6,1.1,2.6,1.1,4.8c-0.3,7.7-0.3,16.2-0.1,23.7c0.5,14.9,2.6,26.6,5.4,34.7c2,5.7,6.8,14.9,13.5,15.8
    c5.8,0.8,10.8-1.4,17.5-7c5-4.1,9.1-9.5,12.4-14.5c1.7-2.5,4.6-8.3,5.4-10c1.1-2.5,1.3-4.3-0.1-4.8
    C675.2,201.4,674.2,201.7,672.5,203.6 M427.2,176.9c-9.4,13.5-27.8,32.7-36.2,35.5c-2,0.7-3.9,0.7-5-0.6c-1.2-1.5-1.5-4.4-0.8-8.3
    c1.5-8.4,5.7-17.9,12.7-27.9c4.2-6,11.3-15.7,19.1-22.6c6.8-6,14.8-9.8,21.2-12.1c3.2-1.1,4.9-1.1,5.7-0.4c1.6,1.5,1,2.9,0,6.1
    C442,153.2,435.1,165.7,427.2,176.9 M514.1,119c-3.4-2.4-4.2-7.1-3.8-11.5c0.3-3.5,0.9-6.7,5.3-6.1c4.8,0.7,7.9,2.2,8.9,9
    c0.8,5.2-1.4,10.6-6.4,10C516.7,120.1,515.4,119.8,514.1,119z M626.9,285.6v-6.8h-2.3v-1.5h6.3v1.5h-2.3v6.8H626.9z M635.7,283.6
    l-1.3-2.2c-0.4-0.8-0.6-1.3-0.6-1.3h-0.1c0,0,0.1,0.5,0.1,1.4v4h-1.7v-8.2h1.8l1.7,3.1c0.4,0.8,0.5,1.1,0.5,1.1h0.1
    c0,0,0.1-0.4,0.5-1.1l1.7-3.1h1.8v8.2h-1.7v-4c0-1,0.1-1.4,0.1-1.4h-0.1c0,0-0.2,0.5-0.6,1.3l-1.3,2.2H635.7z"></path>
</svg>